<svg width="20" height="20" viewBox="0 0 20 20" fill="none" xmlns="http://www.w3.org/2000/svg">
<path d="M14.9541 11.8975C14.655 10.8132 14.0083 9.85695 13.1135 9.1755C12.2186 8.49404 11.1248 8.125 9.99997 8.125C8.87515 8.125 7.78139 8.49404 6.88649 9.1755C5.99159 9.85695 5.34499 10.8132 5.04587 11.8975L4.33306 14.4815C4.20507 14.9455 4.18598 15.4327 4.27726 15.9052C4.36855 16.3778 4.56774 16.8229 4.85931 17.2058C5.15089 17.5887 5.52696 17.899 5.95821 18.1127C6.38947 18.3264 6.86424 18.4375 7.34552 18.4375H12.6544C13.1357 18.4375 13.6105 18.3264 14.0417 18.1127C14.473 17.899 14.8491 17.5887 15.1406 17.2058C15.4322 16.8229 15.6314 16.3778 15.7227 15.9052C15.814 15.4327 15.7949 14.9455 15.6669 14.4815L14.9541 11.8975ZM14.1462 16.4483C13.972 16.6789 13.7465 16.8657 13.4876 16.994C13.2287 17.1224 12.9434 17.1886 12.6544 17.1875H7.34552C7.05675 17.1875 6.77188 17.1208 6.51312 16.9926C6.25436 16.8644 6.02872 16.6782 5.85377 16.4485C5.67882 16.2187 5.5593 15.9517 5.50453 15.6681C5.44976 15.3846 5.46122 15.0923 5.53802 14.8139L6.25083 12.2299C6.4772 11.4094 6.96654 10.6857 7.64377 10.17C8.32101 9.65428 9.14874 9.37501 9.99997 9.37501C10.8512 9.37501 11.6789 9.65428 12.3562 10.17C13.0334 10.6857 13.5227 11.4094 13.7491 12.2299L14.4619 14.8139C14.5398 15.0922 14.5519 15.3847 14.497 15.6685C14.4422 15.9522 14.3221 16.2192 14.1462 16.4485V16.4483ZM5.707 8.9965C5.81575 8.31682 5.67153 7.5892 5.30075 6.94717C4.92997 6.30514 4.37185 5.81643 3.72899 5.57076C3.04056 5.30783 2.33837 5.34971 1.7511 5.68862C0.583643 6.36268 0.276417 8.02397 1.06638 9.39193C1.43704 10.034 1.99521 10.5228 2.63806 10.7683C2.92283 10.8793 3.22552 10.9372 3.53114 10.9391C3.9119 10.9405 4.28622 10.8409 4.61595 10.6504C5.20286 10.3115 5.59036 9.72412 5.707 8.9965ZM4.47263 8.79893C4.41677 9.14772 4.24567 9.4208 3.99087 9.56791C3.73607 9.71502 3.41403 9.72658 3.08396 9.60061C2.70845 9.45721 2.37634 9.16111 2.14876 8.76693C1.71126 8.00912 1.81524 7.09506 2.3761 6.77115C2.5171 6.69114 2.67677 6.64993 2.83888 6.6517C2.99094 6.65327 3.14143 6.68262 3.28294 6.7383C3.65845 6.88178 3.99056 7.17783 4.21814 7.57201C4.44571 7.96619 4.53607 8.40201 4.47263 8.79893ZM5.84239 6.40693C6.28622 6.76174 6.79306 6.94651 7.3056 6.94647C7.45912 6.94642 7.6122 6.9299 7.7622 6.89721C9.0795 6.61084 9.87821 5.12209 9.54267 3.57854C9.38524 2.85408 9.00251 2.2185 8.46501 1.78877C7.88942 1.32862 7.20763 1.15444 6.54521 1.2985C5.22794 1.58483 4.42923 3.07358 4.76474 4.61713C4.9222 5.34162 5.30493 5.97721 5.84239 6.40693ZM6.81067 2.51998C6.87141 2.50689 6.93338 2.50034 6.99552 2.50045C7.22786 2.50045 7.46685 2.59135 7.68446 2.76533C7.99841 3.01631 8.22454 3.39947 8.32118 3.84428C8.50712 4.69955 8.12954 5.53834 7.49669 5.67592C7.20915 5.73842 6.89884 5.65139 6.62298 5.4308C6.30903 5.17979 6.0829 4.79662 5.98626 4.35186C5.80028 3.49635 6.17786 2.65756 6.81067 2.51998ZM18.2488 5.68862C17.6618 5.34971 16.9593 5.30783 16.2709 5.57076C15.6281 5.81635 15.0699 6.30514 14.6993 6.94717C14.3286 7.5892 14.1843 8.31697 14.293 8.9965C14.4095 9.72412 14.7969 10.3115 15.3841 10.6504C15.7138 10.8409 16.0881 10.9405 16.4689 10.9391C16.7745 10.9372 17.0772 10.8793 17.362 10.7683C18.0048 10.5228 18.563 10.034 18.9336 9.39193C19.7235 8.02397 19.4163 6.36268 18.2488 5.68862ZM17.8512 8.76693C17.6236 9.16111 17.2915 9.45721 16.916 9.60061C16.5861 9.7267 16.264 9.7151 16.0092 9.56791C15.7543 9.42072 15.5834 9.14772 15.5274 8.79893C15.4639 8.40201 15.5542 7.96635 15.7818 7.57236C16.0094 7.17838 16.3415 6.88213 16.717 6.73865C16.8585 6.68292 17.009 6.65352 17.1611 6.6519C17.3232 6.65012 17.4828 6.69134 17.6238 6.77135C18.1847 7.09498 18.2888 8.00893 17.8512 8.76693ZM12.2377 6.89721C12.3877 6.9299 12.5408 6.94642 12.6943 6.94647C13.2068 6.94647 13.7139 6.76174 14.1575 6.40693C14.695 5.97725 15.0777 5.34162 15.2352 4.61717C15.5707 3.07362 14.772 1.58487 13.4547 1.29854C12.7924 1.15455 12.1105 1.32862 11.5349 1.78881C10.9974 2.2185 10.6147 2.85412 10.4573 3.57854C10.1217 5.12209 10.9204 6.61084 12.2377 6.89721ZM11.6788 3.84408C11.7754 3.39928 12.0015 3.01596 12.3155 2.76514C12.5331 2.59115 12.7721 2.50026 13.0044 2.50026C13.0666 2.50014 13.1285 2.50669 13.1893 2.51979C13.8221 2.65736 14.1997 3.49635 14.0138 4.35143C13.917 4.79623 13.6909 5.17955 13.377 5.43041C13.1012 5.65096 12.7911 5.73799 12.5033 5.67553C11.8704 5.53815 11.4928 4.69924 11.6788 3.84408Z" fill="#BECFBB"/>
</svg>
