<svg width="45" height="45" viewBox="0 0 45 45" fill="none" xmlns="http://www.w3.org/2000/svg">
<path d="M0 22.5C0 10.08 10.08 0 22.5 0C34.92 0 45 10.08 45 22.5C45 34.92 34.92 45 22.5 45C10.08 45 0 34.92 0 22.5Z" fill="#BECFBB"/>
<path d="M21.9375 7.03125C25.6725 7.03125 28.6875 10.0463 28.6875 13.7812C28.6875 17.5162 25.6725 20.5312 21.9375 20.5312C18.2025 20.5312 15.1875 17.5162 15.1875 13.7812C15.1875 10.0463 18.2025 7.03125 21.9375 7.03125ZM21.9375 38.9813C16.3125 38.9813 11.34 36.1012 8.4375 31.7362C8.505 27.2587 17.4375 24.8062 21.9375 24.8062C26.415 24.8062 35.37 27.2587 35.4375 31.7362C32.535 36.1012 27.5625 38.9813 21.9375 38.9813Z" fill="white"/>
</svg>
