<svg width="52" height="52" viewBox="0 0 52 52" fill="none" xmlns="http://www.w3.org/2000/svg">
<path d="M32.1457 24.2019L25.3743 17.0629C25.062 16.722 24.8892 16.2655 24.8931 15.7916C24.897 15.3177 25.0773 14.8644 25.3951 14.5294C25.713 14.1943 26.1429 14.0042 26.5924 14.0001C27.0419 13.9959 27.4749 14.1781 27.7983 14.5073L37.4959 24.7314C37.6557 24.8989 37.7825 25.098 37.869 25.3172C37.9555 25.5365 38 25.7717 38 26.0092C38 26.2467 37.9555 26.4818 37.869 26.7011C37.7825 26.9204 37.6557 27.1195 37.4959 27.287L27.7983 37.511C27.4735 37.8321 27.043 38.0074 26.5978 37.9998C26.1526 37.9921 25.7277 37.8022 25.413 37.4702C25.0983 37.1382 24.9185 36.6901 24.9116 36.2207C24.9046 35.7514 25.0712 35.2976 25.376 34.9555L32.1474 27.8165L15.7143 27.8165C15.2596 27.8165 14.8236 27.6261 14.5021 27.2872C14.1806 26.9482 14 26.4885 14 26.0092C14 25.5298 14.1806 25.0701 14.5021 24.7312C14.8236 24.3923 15.2596 24.2019 15.7143 24.2019L32.1457 24.2019Z" fill="#404040"/>
</svg>
