<svg width="26" height="26" viewBox="0 0 26 26" fill="none" xmlns="http://www.w3.org/2000/svg">
<path d="M13 0C5.83267 0 0 5.83267 0 13C0 20.1673 5.83267 26 13 26C20.1673 26 26 20.1673 26 13C26 5.83267 20.1673 0 13 0ZM13 2.16667C18.9963 2.16667 23.8333 7.00375 23.8333 13C23.836 15.5935 22.906 18.1014 21.2131 20.0662C19.5202 22.0309 17.1774 23.3214 14.612 23.7023V16.159H17.6973L18.1816 13.0249H14.612V11.3133C14.612 10.0133 15.0399 8.85733 16.2565 8.85733H18.2119V6.123C17.8685 6.07642 17.1416 5.97567 15.7679 5.97567C12.8993 5.97567 11.2179 7.49017 11.2179 10.9417V13.0249H8.26908V16.159H11.2179V23.6752C8.68806 23.2588 6.38867 21.9565 4.73058 20.0009C3.07249 18.0453 2.16373 15.5639 2.16667 13C2.16667 7.00375 7.00375 2.16667 13 2.16667Z" fill="#BECFBB"/>
</svg>
