<svg width="536" height="541" viewBox="0 0 536 541" fill="none" xmlns="http://www.w3.org/2000/svg">
<path d="M215.899 250.069L28.5442 437.424C23.6164 442.346 19.7072 448.192 17.04 454.626C14.3728 461.06 13 467.956 13 474.921C13 481.887 14.3728 488.783 17.04 495.217C19.7072 501.651 23.6164 507.497 28.5442 512.419C38.4832 522.355 51.9615 527.937 66.0152 527.937C80.0689 527.937 93.5472 522.355 103.486 512.419L290.841 325.011M405.189 334.683L507.956 437.451C517.892 447.389 523.473 460.868 523.473 474.921C523.473 488.975 517.892 502.454 507.956 512.393C498.017 522.328 484.538 527.91 470.485 527.91C456.431 527.91 442.953 522.328 433.014 512.393L268.475 347.881M127.999 125.44L71.7392 144.149L15.5592 50.471L53.0302 13L146.734 69.2065L127.999 125.44ZM127.999 125.44L202.994 200.434" stroke="#BECFBB" stroke-width="25" stroke-linecap="round" stroke-linejoin="round"/>
<path d="M215.899 250.069C193.533 193.014 197.906 118.152 244.016 72.042C290.126 25.932 375.191 15.8355 422.016 43.952L341.456 124.512L333.957 206.953L416.398 199.481L496.958 118.894C525.101 165.746 514.978 250.811 468.868 296.894C422.758 343.004 347.922 347.377 290.868 325.011" stroke="#BECFBB" stroke-width="25" stroke-linecap="round" stroke-linejoin="round"/>
</svg>
