<svg width="25" height="25" viewBox="0 0 25 25" fill="none" xmlns="http://www.w3.org/2000/svg">
<path d="M12.5 6.07601C11.2306 6.07601 9.98967 6.45208 8.93419 7.15667C7.87871 7.86126 7.05606 8.86272 6.57028 10.0344C6.08449 11.2061 5.95739 12.4954 6.20504 13.7392C6.45269 14.9831 7.06398 16.1257 7.96159 17.0224C8.8592 17.9192 10.0028 18.5299 11.2479 18.7773C12.4929 19.0247 13.7834 18.8978 14.9562 18.4124C16.129 17.9271 17.1314 17.1052 17.8366 16.0507C18.5419 14.9962 18.9183 13.7565 18.9183 12.4883C18.9203 11.6456 18.7557 10.8109 18.4339 10.032C18.1121 9.25306 17.6394 8.54536 17.043 7.94952C16.4466 7.35367 15.7382 6.88143 14.9586 6.55991C14.179 6.2384 13.3434 6.07395 12.5 6.07601ZM12.5 16.6641C11.6733 16.6641 10.8652 16.4192 10.1779 15.9603C9.49053 15.5015 8.9548 14.8493 8.63845 14.0863C8.3221 13.3232 8.23932 12.4836 8.4006 11.6736C8.56187 10.8636 8.95995 10.1195 9.5445 9.53554C10.129 8.95155 10.8738 8.55384 11.6846 8.39272C12.4954 8.23159 13.3358 8.31429 14.0995 8.63034C14.8632 8.9464 15.516 9.48162 15.9753 10.1683C16.4346 10.855 16.6797 11.6624 16.6797 12.4883C16.6797 13.5958 16.2393 14.6579 15.4555 15.441C14.6717 16.2241 13.6085 16.6641 12.5 16.6641ZM20.6872 5.81013C20.6872 6.11946 20.5954 6.42183 20.4234 6.67903C20.2514 6.93622 20.0069 7.13668 19.7209 7.25505C19.4348 7.37342 19.1201 7.40439 18.8164 7.34405C18.5127 7.2837 18.2338 7.13475 18.0149 6.91603C17.7959 6.6973 17.6468 6.41863 17.5864 6.11525C17.526 5.81187 17.557 5.49741 17.6755 5.21163C17.794 4.92585 17.9946 4.6816 18.2521 4.50974C18.5095 4.33789 18.8122 4.24617 19.1218 4.24617C19.537 4.24617 19.9351 4.41094 20.2287 4.70424C20.5223 4.99754 20.6872 5.39534 20.6872 5.81013ZM24.9296 7.3741C24.9751 5.42982 24.2492 3.54644 22.9101 2.13481C21.5047 0.77993 19.6187 0.0374678 17.6659 0.0703785C15.6309 -0.0234595 9.36913 -0.0234595 7.33406 0.0703785C5.38855 0.0282908 3.50465 0.753051 2.08986 2.08789C0.750835 3.49952 0.0249123 5.3829 0.0704446 7.32718C-0.0234815 9.36034 -0.0234815 15.6162 0.0704446 17.6494C0.0249123 19.5936 0.750835 21.477 2.08986 22.8886C3.50465 24.2235 5.38855 24.9482 7.33406 24.9062C9.40044 25.0313 15.5996 25.0313 17.6659 24.9062C19.612 24.9517 21.4972 24.2264 22.9101 22.8886C24.2492 21.477 24.9751 19.5936 24.9296 17.6494C25.0235 15.6162 25.0235 9.36034 24.9296 7.32718V7.3741ZM22.2683 19.8858C22.0558 20.4237 21.7349 20.9123 21.3256 21.3212C20.9163 21.7301 20.4273 22.0507 19.8889 22.2631C17.4587 22.7539 14.9743 22.9222 12.5 22.7635C10.0309 22.9225 7.55166 22.7542 5.1268 22.2631C4.58839 22.0507 4.09937 21.7301 3.69006 21.3212C3.28075 20.9123 2.95988 20.4237 2.74734 19.8858C2.08986 18.228 2.23075 14.3181 2.23075 12.5039C2.23075 10.6897 2.08986 6.76415 2.74734 5.12199C2.95389 4.57877 3.27246 4.08502 3.68239 3.67278C4.09232 3.26054 4.58444 2.93903 5.1268 2.72912C7.55166 2.238 10.0309 2.06972 12.5 2.22865C14.9743 2.06998 17.4587 2.23826 19.8889 2.72912C20.4273 2.94147 20.9163 3.26204 21.3256 3.67096C21.7349 4.07988 22.0558 4.56844 22.2683 5.10635C22.9258 6.76415 22.7693 10.6741 22.7693 12.4883C22.7693 14.3025 22.9258 18.228 22.2683 19.8702V19.8858Z" fill="#BECFBB"/>
</svg>
