<svg width="17" height="17" viewBox="0 0 17 17" fill="none" xmlns="http://www.w3.org/2000/svg">
<path d="M15.7516 10.0851C15.7072 9.96133 15.6551 9.84046 15.5955 9.72322L12.8337 3.43986C12.8075 3.37934 12.7701 3.32435 12.7234 3.27783C12.5261 3.08045 12.2918 2.92388 12.034 2.81706C11.7761 2.71024 11.4998 2.65526 11.2207 2.65526C10.9416 2.65526 10.6652 2.71024 10.4073 2.81706C10.1495 2.92388 9.91522 3.08045 9.71789 3.27783C9.61861 3.37722 9.56274 3.51188 9.5625 3.65236V5.31252H7.4375V3.65236C7.43756 3.58257 7.42386 3.51346 7.3972 3.44897C7.37054 3.38448 7.33143 3.32587 7.28211 3.2765C7.08478 3.07912 6.8505 2.92255 6.59265 2.81573C6.3348 2.70891 6.05844 2.65393 5.77934 2.65393C5.50024 2.65393 5.22387 2.70891 4.96602 2.81573C4.70817 2.92255 4.47389 3.07912 4.27656 3.2765C4.22987 3.32303 4.19246 3.37801 4.16633 3.43853L1.40449 9.72189C1.34492 9.83913 1.2928 9.96001 1.24844 10.0838C1.09205 10.5214 1.03323 10.9879 1.07609 11.4506C1.11895 11.9133 1.26246 12.361 1.49656 12.7624C1.73066 13.1638 2.0497 13.5092 2.43132 13.7743C2.81294 14.0394 3.24791 14.2179 3.70577 14.2972C4.16363 14.3766 4.6333 14.3549 5.08187 14.2336C5.53045 14.1123 5.94709 13.8944 6.3026 13.5952C6.65811 13.296 6.9439 12.9226 7.13994 12.5013C7.33598 12.08 7.43754 11.6209 7.4375 11.1563V6.37502H9.5625V11.1563C9.56227 11.621 9.66366 12.0802 9.85957 12.5016C10.0555 12.923 10.3412 13.2965 10.6966 13.5959C11.0521 13.8953 11.4687 14.1133 11.9173 14.2347C12.3659 14.3561 12.8356 14.3779 13.2936 14.2987C13.7515 14.2194 14.1866 14.041 14.5683 13.7759C14.95 13.5108 15.2691 13.1654 15.5033 12.764C15.7374 12.3626 15.881 11.9148 15.9239 11.452C15.9668 10.9893 15.908 10.5228 15.7516 10.0851ZM5.09402 3.96779C5.27114 3.81866 5.49213 3.73146 5.72336 3.71948C5.95459 3.70749 6.18341 3.77136 6.375 3.90138V8.78291C5.96023 8.41047 5.45486 8.15357 4.90953 8.03795C4.36421 7.92234 3.79807 7.95207 3.26785 8.12416L5.09402 3.96779ZM4.25 13.2813C3.82971 13.2813 3.41887 13.1566 3.06941 12.9231C2.71996 12.6896 2.44759 12.3578 2.28676 11.9695C2.12592 11.5812 2.08384 11.1539 2.16583 10.7417C2.24783 10.3295 2.45021 9.95085 2.7474 9.65366C3.04458 9.35648 3.42322 9.15409 3.83543 9.0721C4.24764 8.9901 4.67491 9.03219 5.0632 9.19302C5.4515 9.35386 5.78338 9.62623 6.01687 9.97568C6.25037 10.3251 6.375 10.736 6.375 11.1563C6.375 11.7199 6.15112 12.2604 5.7526 12.6589C5.35409 13.0574 4.81359 13.2813 4.25 13.2813ZM10.625 3.90072C10.8166 3.7707 11.0454 3.70682 11.2766 3.71881C11.5079 3.7308 11.7289 3.81799 11.906 3.96713L13.7321 8.12283C13.2019 7.95082 12.6357 7.92121 12.0904 8.03694C11.545 8.15267 11.0397 8.40969 10.625 8.78224V3.90072ZM12.75 13.2813C12.3297 13.2813 11.9189 13.1566 11.5694 12.9231C11.22 12.6896 10.9476 12.3578 10.7868 11.9695C10.6259 11.5812 10.5838 11.1539 10.6658 10.7417C10.7478 10.3295 10.9502 9.95085 11.2474 9.65366C11.5446 9.35648 11.9232 9.15409 12.3354 9.0721C12.7476 8.9901 13.1749 9.03219 13.5632 9.19302C13.9515 9.35386 14.2834 9.62623 14.5169 9.97568C14.7504 10.3251 14.875 10.736 14.875 11.1563C14.875 11.7199 14.6511 12.2604 14.2526 12.6589C13.8541 13.0574 13.3136 13.2813 12.75 13.2813Z" fill="#BECFBB"/>
</svg>
