<svg width="20" height="20" viewBox="0 0 20 20" fill="none" xmlns="http://www.w3.org/2000/svg">
<path d="M15 8.33331L12.5 9.58331L9.16667 7.08331L8.33333 11.6666L11.25 14.1666L11.6667 17.9166M15 7.08331V17.9166M8.33333 14.1666L6.66667 17.9166M7.08333 7.08331C5.83333 7.91665 5 9.99998 5 9.99998L6.66667 10.8333M10 5.41665C10.442 5.41665 10.866 5.24105 11.1785 4.92849C11.4911 4.61593 11.6667 4.19201 11.6667 3.74998C11.6667 3.30795 11.4911 2.88403 11.1785 2.57147C10.866 2.25891 10.442 2.08331 10 2.08331C9.55797 2.08331 9.13405 2.25891 8.82149 2.57147C8.50893 2.88403 8.33333 3.30795 8.33333 3.74998C8.33333 4.19201 8.50893 4.61593 8.82149 4.92849C9.13405 5.24105 9.55797 5.41665 10 5.41665Z" stroke="#BECFBB" stroke-linecap="round" stroke-linejoin="round"/>
</svg>
