<svg width="22" height="25" viewBox="0 0 22 25" fill="none" xmlns="http://www.w3.org/2000/svg">
<path d="M21.1538 6.48148C19.8078 6.47995 18.5173 5.89414 17.5655 4.8526C16.6137 3.81107 16.0783 2.39888 16.0769 0.925926C16.0769 0.680355 15.9878 0.444842 15.8291 0.271197C15.6704 0.0975526 15.4552 0 15.2308 0H11C10.7756 0 10.5604 0.0975526 10.4017 0.271197C10.243 0.444842 10.1538 0.680355 10.1538 0.925926V16.2037C10.1537 16.6179 10.0519 17.0245 9.85924 17.381C9.66654 17.7376 9.38995 18.031 9.05831 18.2307C8.72668 18.4304 8.35215 18.529 7.9738 18.5164C7.59544 18.5037 7.22712 18.3802 6.90726 18.1587C6.5874 17.9372 6.32771 17.6258 6.15528 17.2571C5.98286 16.8883 5.90401 16.4757 5.92697 16.0622C5.94993 15.6488 6.07385 15.2496 6.28581 14.9065C6.49777 14.5633 6.79 14.2886 7.13202 14.1111C7.2767 14.036 7.39892 13.9175 7.48448 13.7693C7.57004 13.6212 7.61544 13.4495 7.61538 13.2743V8.33333C7.61544 8.19799 7.58837 8.06427 7.5361 7.9416C7.48383 7.81894 7.40761 7.7103 7.31282 7.62335C7.21804 7.5364 7.10698 7.47325 6.98748 7.43834C6.86798 7.40343 6.74293 7.39761 6.62115 7.4213C2.84625 8.15741 0 11.9329 0 16.2037C0 18.5366 0.846907 20.774 2.35441 22.4236C3.86191 24.0732 5.90653 25 8.03846 25C10.1704 25 12.215 24.0732 13.7225 22.4236C15.23 20.774 16.0769 18.5366 16.0769 16.2037V11.6076C17.6441 12.5024 19.3862 12.9675 21.1538 12.963C21.3783 12.963 21.5935 12.8654 21.7522 12.6918C21.9109 12.5181 22 12.2826 22 12.037V7.40741C22 7.16184 21.9109 6.92632 21.7522 6.75268C21.5935 6.57903 21.3783 6.48148 21.1538 6.48148ZM20.3077 11.0694C18.6541 10.9091 17.0708 10.2633 15.7247 9.20023C15.5982 9.10069 15.449 9.04132 15.2936 9.02865C15.1382 9.01599 14.9827 9.05052 14.8441 9.12845C14.7055 9.20637 14.5892 9.32467 14.5082 9.47029C14.4271 9.6159 14.3843 9.78319 14.3846 9.9537V16.2037C14.3846 18.0455 13.716 19.8118 12.5259 21.1142C11.3357 22.4165 9.72157 23.1481 8.03846 23.1481C6.35536 23.1481 4.74119 22.4165 3.55105 21.1142C2.36092 19.8118 1.69231 18.0455 1.69231 16.2037C1.69231 13.206 3.45231 10.5174 5.92308 9.53704V12.7396C5.37609 13.1395 4.93312 13.6877 4.63735 14.3307C4.34157 14.9737 4.20307 15.6896 4.23536 16.4086C4.26764 17.1276 4.46961 17.8251 4.82157 18.4333C5.17352 19.0415 5.66347 19.5395 6.24365 19.8788C6.82383 20.2181 7.47445 20.3872 8.1321 20.3695C8.78974 20.3518 9.43198 20.1479 9.99621 19.7778C10.5604 19.4077 11.0274 18.8839 11.3516 18.2575C11.6758 17.6312 11.8462 16.9236 11.8462 16.2037V1.85185H14.4375C14.6278 3.48273 15.3075 4.99835 16.3699 6.16092C17.4323 7.32349 18.8173 8.06723 20.3077 8.27546V11.0694Z" fill="#BECFBB"/>
</svg>
