<svg width="20" height="20" viewBox="0 0 20 20" fill="none" xmlns="http://www.w3.org/2000/svg">
<path d="M10 16.5455C10.8596 16.5455 11.7107 16.3762 12.5048 16.0472C13.299 15.7183 14.0205 15.2361 14.6283 14.6283C15.2361 14.0205 15.7183 13.299 16.0472 12.5048C16.3762 11.7107 16.5455 10.8596 16.5455 10C16.5455 9.14044 16.3762 8.28929 16.0472 7.49516C15.7183 6.70103 15.2361 5.97947 14.6283 5.37166C14.0205 4.76386 13.299 4.28173 12.5048 3.95279C11.7107 3.62385 10.8596 3.45455 10 3.45455C8.26404 3.45455 6.59918 4.14415 5.37167 5.37166C4.14415 6.59918 3.45455 8.26404 3.45455 10C3.45455 11.736 4.14415 13.4008 5.37167 14.6283C6.59918 15.8558 8.26404 16.5455 10 16.5455ZM18 10C18 14.4182 14.4182 18 10 18C5.58182 18 2 14.4182 2 10C2 5.58182 5.58182 2 10 2C14.4182 2 18 5.58182 18 10ZM12.1818 13.2102L9.27273 10.3011V5.27273H10.7273V9.69891L13.2102 12.1818L12.1818 13.2102Z" fill="#BECFBB"/>
</svg>
