<svg width="329" height="329" viewBox="0 0 329 329" fill="none" xmlns="http://www.w3.org/2000/svg">
<g clip-path="url(#clip0_206_663)">
<circle cx="164" cy="163" r="163" fill="#F0EFEB"/>
<path d="M23.4354 182.759C23.8472 182.759 24.2067 182.709 24.5965 182.689C29.7836 179.572 35.6807 176.121 41.9104 172.63C43.1465 171.688 44.5025 170.89 46.0752 170.319C48.1182 169.196 50.1842 168.079 52.2694 166.971L51.5504 166.88C44.0151 166.88 40.2556 170.448 36.6198 173.898C33.194 177.149 29.958 180.219 23.4355 180.219C16.9145 180.219 13.6793 177.149 10.2544 173.898C9.13583 172.836 7.99079 171.776 6.74237 170.8C6.78805 171.958 6.84586 173.113 6.91648 174.264C7.44911 174.747 7.97685 175.239 8.50571 175.741C12.1415 179.191 15.901 182.759 23.4354 182.759Z" fill="#404040"/>
<path d="M317.824 155.415C315.118 157.981 312.505 160.409 308.325 161.329C309.281 161.942 310.22 162.555 311.126 163.163C314.688 161.843 317.17 159.536 319.573 157.258C320.408 156.466 321.233 155.686 322.096 154.957C322.035 153.933 321.97 152.909 321.889 151.891C320.415 152.975 319.107 154.199 317.824 155.415Z" fill="#404040"/>
<path d="M23.4354 164.275C30.9707 164.275 34.7311 160.707 38.3676 157.257C41.7925 154.007 45.0286 150.937 51.5503 150.937C58.0737 150.937 61.3098 154.007 64.7363 157.257C65.5107 157.992 66.305 158.733 67.1374 159.45C67.9897 159.043 68.8362 158.648 69.6835 158.254C68.5806 157.382 67.5454 156.422 66.4842 155.415C62.8476 151.965 59.0864 148.397 51.5503 148.397C44.015 148.397 40.2555 151.965 36.6198 155.415C33.194 158.665 29.958 161.735 23.4354 161.735C16.9145 161.735 13.6793 158.665 10.2544 155.415C9.22872 154.442 8.18209 153.468 7.05477 152.559C6.9757 153.611 6.9118 154.667 6.85358 155.725C7.40788 156.225 7.95678 156.735 8.50649 157.257C12.1415 160.707 15.901 164.275 23.4354 164.275Z" fill="#404040"/>
<path d="M304.634 143.253C298.108 143.253 294.871 140.183 291.444 136.932C287.805 133.483 284.044 129.915 276.505 129.915C268.968 129.915 265.206 133.483 261.568 136.932C258.142 140.183 254.906 143.253 248.38 143.253C248.088 143.253 247.825 143.207 247.54 143.195C247.877 144.048 248.194 144.912 248.491 145.786C255.951 145.749 259.699 142.207 263.317 138.775C266.743 135.525 269.981 132.455 276.505 132.455C283.031 132.455 286.268 135.525 289.695 138.775C293.334 142.225 297.095 145.793 304.634 145.793C312.173 145.793 315.934 142.225 319.573 138.775C319.779 138.58 319.984 138.39 320.19 138.196C320.023 137.206 319.848 136.219 319.663 135.235C319.038 135.795 318.425 136.363 317.824 136.933C314.397 140.183 311.16 143.253 304.634 143.253Z" fill="#404040"/>
<path d="M38.3676 138.775C41.7925 135.525 45.0286 132.455 51.5503 132.455C58.0745 132.455 61.3106 135.525 64.7371 138.775C68.3737 142.225 72.134 145.793 79.6701 145.793C87.2054 145.793 90.9649 142.225 94.6007 138.775C98.0264 135.525 101.262 132.455 107.785 132.455C114.308 132.455 117.544 135.525 120.97 138.775C124.606 142.225 128.366 145.793 135.902 145.793C136.965 145.793 137.967 145.694 138.944 145.548C139.27 144.61 139.618 143.683 139.99 142.767C138.717 143.082 137.368 143.253 135.902 143.253C129.38 143.253 126.144 140.183 122.717 136.933C119.081 133.483 115.321 129.915 107.785 129.915C100.25 129.915 96.4894 133.483 92.8528 136.933C89.4279 140.183 86.1918 143.253 79.6701 143.253C73.1467 143.253 69.9107 140.183 66.4842 136.933C62.8476 133.483 59.0873 129.915 51.5503 129.915C44.015 129.915 40.2555 133.483 36.6198 136.932C33.194 140.183 29.958 143.253 23.4354 143.253C16.9145 143.253 13.6793 140.183 10.2544 136.933C9.90615 136.603 9.55354 136.272 9.19981 135.943C9.01715 136.939 8.84854 137.94 8.68469 138.943C12.2657 142.339 16.023 145.793 23.4354 145.793C30.9707 145.793 34.7311 142.225 38.3676 138.775Z" fill="#404040"/>
<path d="M304.634 124.771C298.108 124.771 294.871 121.701 291.444 118.451C287.805 115.001 284.044 111.433 276.505 111.433C268.968 111.433 265.206 115.001 261.568 118.451C258.142 121.701 254.906 124.771 248.38 124.771C241.856 124.771 238.619 121.701 235.193 118.451C231.556 115.001 227.795 111.433 220.256 111.433C219.244 111.433 218.29 111.514 217.363 111.644C219.013 112.385 220.622 113.202 222.188 114.089C227.445 114.638 230.378 117.384 233.444 120.294C237.082 123.744 240.843 127.311 248.38 127.311C255.917 127.311 259.68 123.743 263.317 120.294C266.743 117.043 269.981 113.973 276.505 113.973C283.031 113.973 286.268 117.043 289.695 120.294C293.334 123.743 297.095 127.311 304.634 127.311C310.31 127.311 313.844 125.288 316.797 122.816C316.549 121.91 316.294 121.007 316.03 120.107C313.167 122.668 310.025 124.771 304.634 124.771Z" fill="#404040"/>
<path d="M38.3677 120.293C41.7926 117.043 45.0286 113.973 51.5504 113.973C58.0746 113.973 61.3106 117.043 64.7371 120.294C68.3737 123.744 72.134 127.311 79.6702 127.311C87.2054 127.311 90.9649 123.743 94.6007 120.294C98.0264 117.043 101.262 113.973 107.785 113.973C114.308 113.973 117.544 117.043 120.97 120.293C124.606 123.743 128.366 127.311 135.902 127.311C143.438 127.311 147.199 123.743 150.835 120.293C154.262 117.043 157.498 113.973 164.021 113.973C164.456 113.973 164.866 114.009 165.282 114.037C166.51 113.343 167.762 112.69 169.043 112.086C167.477 111.666 165.821 111.433 164.021 111.433C156.485 111.433 152.725 115.001 149.088 118.451C145.662 121.701 142.426 124.771 135.902 124.771C129.38 124.771 126.144 121.701 122.717 118.451C119.081 115.001 115.321 111.433 107.785 111.433C100.25 111.433 96.4894 115.001 92.8529 118.451C89.428 121.701 86.1919 124.771 79.6702 124.771C73.1468 124.771 69.9107 121.701 66.4842 118.451C62.8476 115.001 59.0873 111.433 51.5504 111.433C44.0151 111.433 40.2556 115.001 36.6198 118.45C33.1941 121.701 29.9581 124.771 23.4355 124.771C18.5039 124.771 15.4527 123.014 12.7763 120.752C12.5216 121.634 12.2797 122.521 12.0402 123.409C14.845 125.598 18.2329 127.311 23.4355 127.311C30.9708 127.311 34.7311 123.743 38.3677 120.293Z" fill="#404040"/>
<path d="M291.444 99.968C287.805 96.5187 284.044 92.9505 276.505 92.9505C268.968 92.9505 265.206 96.5187 261.568 99.968C258.142 103.219 254.904 106.289 248.38 106.289C241.856 106.289 238.619 103.219 235.193 99.9688C231.556 96.5187 227.795 92.9505 220.256 92.9505C212.722 92.9505 208.961 96.5179 205.325 99.968C201.9 103.219 198.664 106.289 192.142 106.289C185.619 106.289 182.382 103.219 178.957 99.9688C175.319 96.5187 171.558 92.9505 164.021 92.9505C156.485 92.9505 152.725 96.5187 149.088 99.9688C145.662 103.219 142.426 106.289 135.902 106.289C129.38 106.289 126.144 103.219 122.717 99.9688C119.081 96.5187 115.321 92.9505 107.785 92.9505C100.25 92.9505 96.4894 96.5187 92.8529 99.9688C89.4279 103.219 86.1919 106.289 79.6702 106.289C73.1468 106.289 69.9107 103.219 66.4842 99.9688C62.8476 96.5187 59.0873 92.9505 51.5504 92.9505C44.0151 92.9505 40.2556 96.5187 36.6198 99.968C33.1941 103.219 29.958 106.289 23.4355 106.289C21.3445 106.289 19.6167 105.948 18.0868 105.412C17.7679 106.2 17.4546 106.99 17.148 107.784C18.934 108.419 20.9679 108.829 23.4355 108.829C30.9708 108.829 34.7311 105.26 38.3677 101.81C41.7926 98.5604 45.0286 95.4905 51.5504 95.4905C58.0746 95.4905 61.3106 98.5604 64.7372 101.811C68.3737 105.26 72.134 108.829 79.6702 108.829C87.2054 108.829 90.965 105.26 94.6007 101.811C98.0265 98.5604 101.262 95.4905 107.785 95.4905C114.308 95.4905 117.544 98.5604 120.97 101.81C124.606 105.26 128.366 108.829 135.902 108.829C143.438 108.829 147.199 105.26 150.835 101.81C154.262 98.5604 157.498 95.4905 164.021 95.4905C170.546 95.4905 173.782 98.5604 177.208 101.811C179.367 103.859 181.59 105.931 184.6 107.291C187.555 106.824 190.583 106.576 193.668 106.576C195.921 106.576 198.143 106.721 200.334 106.973C203.015 105.617 205.075 103.707 207.074 101.81C210.5 98.5604 213.735 95.4905 220.256 95.4905C226.782 95.4905 230.019 98.5604 233.444 101.811C237.082 105.261 240.843 108.829 248.38 108.829C255.917 108.829 259.68 105.26 263.317 101.811C266.743 98.5604 269.981 95.4905 276.505 95.4905C283.031 95.4905 286.268 98.5604 289.695 101.811C293.334 105.26 297.095 108.829 304.634 108.829C307.476 108.829 309.78 108.32 311.744 107.503C311.436 106.71 311.118 105.921 310.798 105.133C309.086 105.851 307.094 106.289 304.634 106.289C298.108 106.289 294.871 103.219 291.444 99.968Z" fill="#404040"/>
<path d="M276.505 74.468C268.968 74.468 265.206 78.0362 261.568 81.4856C258.142 84.7363 254.904 87.8062 248.38 87.8062C241.856 87.8062 238.619 84.7363 235.193 81.4864C231.556 78.0362 227.795 74.468 220.256 74.468C212.722 74.468 208.961 78.0354 205.325 81.4856C201.9 84.7363 198.664 87.8062 192.142 87.8062C185.619 87.8062 182.382 84.7363 178.957 81.4864C175.319 78.0362 171.558 74.468 164.021 74.468C156.485 74.468 152.725 78.0362 149.088 81.4864C145.662 84.7363 142.426 87.8062 135.902 87.8062C129.38 87.8062 126.144 84.7363 122.717 81.4864C119.081 78.0362 115.321 74.468 107.785 74.468C100.25 74.468 96.4894 78.0362 92.8529 81.4864C89.4279 84.7363 86.1919 87.8062 79.6701 87.8062C73.1468 87.8062 69.9107 84.7363 66.4842 81.4864C62.8476 78.0362 59.0873 74.468 51.5504 74.468C44.0151 74.468 40.2556 78.0362 36.6198 81.4856C33.828 84.1347 31.1312 86.6343 26.7097 87.4796C26.1962 88.3946 25.6898 89.314 25.194 90.2402C31.5553 89.7216 35.0321 86.4925 38.3677 83.3279C41.7926 80.078 45.0286 77.008 51.5504 77.008C58.0746 77.008 61.3106 80.078 64.7371 83.3287C68.3737 86.778 72.134 90.3462 79.6701 90.3462C87.2054 90.3462 90.965 86.778 94.6007 83.3287C98.0265 80.078 101.262 77.008 107.785 77.008C114.308 77.008 117.544 80.078 120.97 83.3279C124.606 86.778 128.366 90.3462 135.902 90.3462C143.438 90.3462 147.199 86.778 150.835 83.3279C154.262 80.078 157.498 77.008 164.021 77.008C170.546 77.008 173.782 80.078 177.208 83.3287C180.845 86.7788 184.607 90.3462 192.142 90.3462C199.677 90.3462 203.438 86.778 207.074 83.3279C210.5 80.078 213.735 77.008 220.256 77.008C226.782 77.008 230.019 80.078 233.444 83.3287C237.082 86.7788 240.843 90.3462 248.38 90.3462C255.917 90.3462 259.68 86.778 263.317 83.3287C266.743 80.078 269.981 77.008 276.505 77.008C283.031 77.008 286.268 80.078 289.695 83.3287C293.198 86.6484 296.848 90.045 303.835 90.2981C303.364 89.4172 302.884 88.5425 302.397 87.6717C297.322 87.0533 294.455 84.3409 291.444 81.4855C287.805 78.0362 284.044 74.468 276.505 74.468Z" fill="#404040"/>
<path d="M261.568 63.0031C258.142 66.2538 254.904 69.3238 248.38 69.3238C241.856 69.3238 238.619 66.2538 235.193 63.0039C231.556 59.5538 227.795 55.9856 220.256 55.9856C212.722 55.9856 208.961 59.553 205.325 63.0031C201.9 66.2538 198.664 69.3238 192.142 69.3238C185.619 69.3238 182.382 66.2538 178.957 63.0039C175.319 59.5538 171.558 55.9856 164.021 55.9856C156.485 55.9856 152.725 59.5538 149.088 63.0039C145.662 66.2538 142.426 69.3238 135.902 69.3238C129.38 69.3238 126.144 66.2538 122.717 63.0039C119.081 59.5538 115.321 55.9856 107.785 55.9856C100.25 55.9856 96.4894 59.5538 92.8528 63.0039C89.4279 66.2538 86.1919 69.3238 79.6701 69.3238C73.1468 69.3238 69.9107 66.2538 66.4842 63.0039C62.8476 59.5538 59.0873 55.9856 51.5504 55.9856C50.9348 55.9856 50.3818 56.0446 49.8147 56.0902C48.8704 57.0886 47.9408 58.1007 47.0225 59.1234C48.3491 58.7493 49.8303 58.5256 51.5504 58.5256C58.0746 58.5256 61.3106 61.5955 64.7371 64.8462C68.3737 68.2956 72.134 71.8637 79.6701 71.8637C87.2054 71.8637 90.9649 68.2955 94.6007 64.8462C98.0264 61.5955 101.262 58.5256 107.785 58.5256C114.308 58.5256 117.544 61.5955 120.97 64.8454C124.606 68.2956 128.366 71.8637 135.902 71.8637C143.438 71.8637 147.199 68.2955 150.835 64.8454C154.262 61.5955 157.498 58.5256 164.021 58.5256C170.545 58.5256 173.782 61.5955 177.208 64.8462C180.845 68.2964 184.607 71.8637 192.142 71.8637C199.677 71.8637 203.438 68.2955 207.074 64.8454C210.5 61.5955 213.735 58.5256 220.256 58.5256C226.782 58.5256 230.019 61.5955 233.444 64.8462C237.082 68.2964 240.843 71.8637 248.38 71.8637C255.917 71.8637 259.68 68.2955 263.317 64.8462C266.743 61.5955 269.981 58.5256 276.505 58.5256C278.835 58.5256 280.732 58.9289 282.382 59.5798C281.354 58.4264 280.313 57.2857 279.252 56.1629C278.393 56.0508 277.484 55.9856 276.505 55.9856C268.968 55.9856 265.206 59.5538 261.568 63.0031Z" fill="#404040"/>
<path d="M248.38 50.8413C241.856 50.8413 238.619 47.7713 235.193 44.5214C231.556 41.0713 227.794 37.5031 220.256 37.5031C212.722 37.5031 208.961 41.0705 205.325 44.5206C201.9 47.7713 198.664 50.8413 192.142 50.8413C185.619 50.8413 182.382 47.7713 178.957 44.5214C175.319 41.0713 171.558 37.5031 164.021 37.5031C156.485 37.5031 152.725 41.0713 149.088 44.5214C145.662 47.7713 142.426 50.8413 135.902 50.8413C129.38 50.8413 126.144 47.7713 122.717 44.5214C119.081 41.0713 115.321 37.5031 107.785 37.5031C100.25 37.5031 96.4894 41.0713 92.8528 44.5214C89.4279 47.7713 86.1919 50.8413 79.6701 50.8413C73.1467 50.8413 69.9107 47.7713 66.4842 44.5214C65.7815 43.8548 65.0648 43.1905 64.3266 42.5416C63.6659 43.0853 63.0148 43.6402 62.3631 44.1944C63.1714 44.8863 63.9508 45.6178 64.7371 46.3637C68.3737 49.8131 72.134 53.3812 79.6701 53.3812C87.2054 53.3812 90.9649 49.813 94.6007 46.3637C98.0264 43.113 101.262 40.0431 107.785 40.0431C114.308 40.0431 117.544 43.113 120.97 46.3629C124.606 49.8131 128.366 53.3812 135.902 53.3812C143.438 53.3812 147.199 49.813 150.835 46.3629C154.262 43.113 157.498 40.0431 164.021 40.0431C170.545 40.0431 173.782 43.113 177.208 46.3637C180.845 49.8139 184.607 53.3812 192.142 53.3812C199.677 53.3812 203.438 49.813 207.074 46.3629C210.5 43.113 213.735 40.0431 220.256 40.0431C226.782 40.0431 230.019 43.113 233.444 46.3637C237.082 49.8139 240.843 53.3812 248.38 53.3812C255.917 53.3812 259.679 49.813 263.317 46.3637C264.256 45.4729 265.187 44.6032 266.169 43.799C265.509 43.2426 264.847 42.6893 264.178 42.1434C263.273 42.9125 262.415 43.718 261.568 44.5206C258.142 47.7713 254.904 50.8413 248.38 50.8413Z" fill="#404040"/>
<path d="M235.193 26.0389C231.556 22.5888 227.794 19.0206 220.256 19.0206C212.722 19.0206 208.961 22.588 205.325 26.0381C201.9 29.2888 198.664 32.3588 192.142 32.3588C185.619 32.3588 182.382 29.2888 178.957 26.0389C175.319 22.5888 171.558 19.0206 164.021 19.0206C156.485 19.0206 152.725 22.5888 149.088 26.0389C145.662 29.2888 142.426 32.3588 135.902 32.3588C129.38 32.3588 126.144 29.2888 122.717 26.0389C119.081 22.5888 115.321 19.0206 107.785 19.0206C100.25 19.0206 96.4894 22.5888 92.8528 26.0389C89.4279 29.2888 86.1919 32.3588 79.6701 32.3588C79.1851 32.3588 78.7527 32.3093 78.3026 32.2766C77.2479 32.9665 76.202 33.6686 75.1648 34.3828C76.5129 34.6983 77.9852 34.8988 79.6701 34.8988C87.2054 34.8988 90.9649 31.3306 94.6007 27.8813C98.0264 24.6306 101.262 21.5606 107.785 21.5606C114.308 21.5606 117.544 24.6306 120.97 27.8804C124.606 31.3306 128.366 34.8988 135.902 34.8988C143.438 34.8988 147.199 31.3306 150.835 27.8804C154.262 24.6306 157.498 21.5606 164.021 21.5606C170.545 21.5606 173.782 24.6306 177.208 27.8813C180.845 31.3314 184.607 34.8988 192.142 34.8988C199.677 34.8988 203.438 31.3306 207.074 27.8804C210.5 24.6306 213.735 21.5606 220.256 21.5606C226.782 21.5606 230.019 24.6306 233.444 27.8813C237.082 31.3314 240.843 34.8988 248.38 34.8988C250.36 34.8988 252.069 34.6418 253.594 34.2159C252.61 33.5408 251.617 32.8776 250.617 32.2243C249.915 32.3099 249.173 32.3588 248.38 32.3588C241.856 32.3588 238.619 29.2888 235.193 26.0389Z" fill="#404040"/>
<path d="M178.957 7.55725C178.847 7.45285 178.734 7.34885 178.623 7.24434C177.247 7.12171 175.865 7.01691 174.478 6.92999C175.416 7.70716 176.307 8.54486 177.208 9.39956C180.845 12.8497 184.607 16.4171 192.142 16.4171C197.948 16.4171 201.507 14.2948 204.501 11.7445C203.469 11.474 202.431 11.2179 201.39 10.9679C199.028 12.6695 196.231 13.8771 192.142 13.8771C185.619 13.8771 182.382 10.8071 178.957 7.55725Z" fill="#404040"/>
<path d="M150.835 9.39878C151.71 8.56963 152.573 7.754 153.48 6.99628C152.089 7.09265 150.703 7.206 149.321 7.3384C149.244 7.41156 149.165 7.48422 149.088 7.5573C145.662 10.8072 142.426 13.8771 135.902 13.8771C131.957 13.8771 129.223 12.745 126.913 11.1384C125.86 11.3964 124.812 11.6637 123.768 11.9427C126.715 14.4054 130.244 16.4171 135.902 16.4171C143.438 16.4171 147.199 12.8489 150.835 9.39878Z" fill="#404040"/>
<path d="M113.794 155.378L115.859 151.283L111.961 149.291L110.862 149.676L108.769 153.827C110.083 154.13 111.771 154.653 113.794 155.378Z" fill="#404040"/>
<path d="M105.895 146.919C97.1342 146.884 83.8287 151.666 69.6835 158.254C70.3994 158.82 71.138 159.356 71.95 159.818L70.6947 162.024C69.3758 161.274 68.2215 160.384 67.1374 159.45C62.1991 161.807 57.1946 164.354 52.2694 166.971L56.3014 167.48L55.979 169.997L51.3891 169.409C49.3166 169.413 47.5989 169.765 46.0752 170.319C44.672 171.09 43.2843 171.86 41.9104 172.63C40.6687 173.576 39.5247 174.643 38.3676 175.741C34.9298 179.003 31.3403 182.33 24.5965 182.689C18.0627 186.614 12.6489 190.006 9.05603 192.292C9.47153 194.623 9.94534 196.933 10.4622 199.227C28.996 187.312 69.8826 162.968 94.0268 155.613C99.0209 150.404 105.085 147.316 105.895 146.919Z" fill="#404040"/>
<path d="M121.019 158.208L122.738 154.799L118.121 152.439L116.189 156.27C117.669 156.838 119.281 157.484 121.019 158.208Z" fill="#404040"/>
<path d="M128.128 161.269L129.618 158.314L125 155.955L123.365 159.196C124.875 159.84 126.466 160.533 128.128 161.269Z" fill="#404040"/>
<path d="M268.491 231.534L269.395 229.743L264.338 227.159L263.447 228.925C265.199 229.832 266.893 230.708 268.491 231.534Z" fill="#404040"/>
<path d="M197.61 195.06L198.412 193.47L193.794 191.109L192.984 192.716C194.523 193.495 196.066 194.277 197.61 195.06Z" fill="#404040"/>
<path d="M190.717 191.571L191.533 189.954L186.914 187.594L186.086 189.236C187.625 190.01 189.169 190.789 190.717 191.571Z" fill="#404040"/>
<path d="M204.496 198.562L205.291 196.985L200.673 194.625L199.873 196.21C201.415 196.993 202.956 197.777 204.496 198.562Z" fill="#404040"/>
<path d="M176.91 184.636L177.774 182.923L173.155 180.563L172.267 182.324C173.804 183.087 175.353 183.859 176.91 184.636Z" fill="#404040"/>
<path d="M183.818 188.095L184.653 186.438L180.035 184.078L179.181 185.771C180.72 186.541 182.265 187.315 183.818 188.095Z" fill="#404040"/>
<path d="M226 209.576L226.805 207.979L221.749 205.395L220.95 206.98C222.643 207.849 224.327 208.714 226 209.576Z" fill="#404040"/>
<path d="M247.033 220.429L247.881 218.749L243.262 216.389L242.426 218.047C243.98 218.85 245.517 219.645 247.033 220.429Z" fill="#404040"/>
<path d="M211.815 202.298L212.608 200.724L207.552 198.14L206.758 199.715C208.447 200.576 210.133 201.438 211.815 202.298Z" fill="#404040"/>
<path d="M232.868 213.113L233.684 211.494L229.066 209.134L228.257 210.737C229.804 211.534 231.343 212.327 232.868 213.113Z" fill="#404040"/>
<path d="M218.691 205.82L219.488 204.24L214.869 201.879L214.075 203.454C215.618 204.245 217.158 205.034 218.691 205.82Z" fill="#404040"/>
<path d="M107.861 150.728L110.861 149.676L111.961 149.291L115.859 151.283L118.121 152.439L122.738 154.799L125 155.955L129.618 158.314L131.879 159.47L135.822 161.485C135.888 160.2 136.011 158.93 136.16 157.668C123.111 151.733 113.531 147.911 108.976 147.136C108.07 146.982 107.069 146.927 106.026 146.917L107.433 149.841L107.861 150.728Z" fill="#404040"/>
<path d="M240.17 216.881L241.001 215.233L235.944 212.649L235.124 214.276C236.824 215.153 238.506 216.022 240.17 216.881Z" fill="#404040"/>
<path d="M275.356 235.081L276.274 233.259L271.655 230.898L270.746 232.7C272.365 233.537 273.896 234.328 275.356 235.081Z" fill="#404040"/>
<path d="M258.725 226.481C259.57 226.918 260.38 227.337 261.193 227.758L262.077 226.004L257.458 223.643L256.586 225.373C257.305 225.745 258.02 226.115 258.725 226.481Z" fill="#404040"/>
<path d="M130.45 162.304C131.973 162.988 133.549 163.705 135.175 164.452L135.775 163.262C135.788 162.669 135.792 162.074 135.822 161.485L131.879 159.47L130.45 162.304Z" fill="#404040"/>
<path d="M281.21 238.098L286.072 238.266L278.535 234.414L277.612 236.245C278.867 236.892 280.077 237.515 281.21 238.098Z" fill="#404040"/>
<path d="M137.483 165.517C139.011 166.225 140.579 166.958 142.183 167.713L143.377 165.345L141.722 164.5H137.995L137.483 165.517Z" fill="#404040"/>
<path d="M149.163 171.029L150.256 168.861L145.637 166.501L144.48 168.797C146.012 169.523 147.573 170.267 149.163 171.029Z" fill="#404040"/>
<path d="M254.332 224.206L255.198 222.488L250.141 219.904L249.288 221.595C250.998 222.48 252.68 223.351 254.332 224.206Z" fill="#404040"/>
<path d="M156.122 174.387L157.136 172.377L152.517 170.016L151.452 172.128C152.986 172.866 154.544 173.62 156.122 174.387Z" fill="#404040"/>
<path d="M163.064 177.778L164.015 175.892L159.397 173.532L158.405 175.498C159.941 176.246 161.494 177.007 163.064 177.778Z" fill="#404040"/>
<path d="M169.993 181.195L170.894 179.407L166.276 177.047L165.343 178.898C166.88 179.656 168.429 180.42 169.993 181.195Z" fill="#404040"/>
<path d="M261.76 220.619C243.051 210.932 224.38 201.297 206.786 192.337C205.475 193.497 204.282 194.571 203.261 195.514L198.783 190.665C198.907 190.551 199.215 190.268 199.679 189.847L153.238 165.677C149.487 163.877 145.903 162.178 142.508 160.594C142.41 161.885 142.344 163.185 142.344 164.5H141.722L143.377 165.345L145.637 166.501L150.256 168.861L152.517 170.016L157.136 172.377L159.397 173.532L164.015 175.892L166.276 177.047L170.894 179.407L173.155 180.563L177.774 182.923L180.035 184.078L184.653 186.438L186.914 187.594L191.532 189.954L193.794 191.109L198.412 193.47L200.672 194.625L205.291 196.985L207.552 198.14L212.608 200.724L214.869 201.879L219.488 204.24L221.748 205.395L226.805 207.979L229.066 209.134L233.684 211.494L235.944 212.649L241.001 215.234L243.261 216.389L247.88 218.749L250.141 219.904L255.198 222.488L257.458 223.643L262.077 226.004L264.338 227.159L269.395 229.743L271.655 230.898L276.274 233.259L278.535 234.414L286.072 238.266L295.435 238.588L295.207 245.185L295.124 245.182C296.706 245.971 297.987 246.597 299.018 247.086C300.173 245.211 301.287 243.309 302.366 241.383C296.435 238.574 280.161 230.147 261.76 220.619Z" fill="#404040"/>
<path d="M51.3892 169.409L55.9791 169.997L56.3014 167.48L52.2694 166.971C50.1842 168.079 48.1182 169.196 46.0753 170.319C47.5989 169.765 49.3166 169.413 51.3892 169.409Z" fill="#404040"/>
<path d="M38.3677 175.741C39.5247 174.643 40.6687 173.576 41.9104 172.63C35.6808 176.121 29.7836 179.572 24.5965 182.689C31.3404 182.33 34.9298 179.003 38.3677 175.741Z" fill="#404040"/>
<path d="M70.6947 162.024L71.95 159.818C71.138 159.356 70.3994 158.82 69.6835 158.254C68.8362 158.648 67.9898 159.043 67.1374 159.45C68.2215 160.384 69.3759 161.274 70.6947 162.024Z" fill="#404040"/>
<path d="M200.475 189.129C205.872 184.281 222.939 169.38 240.32 158.644C237.274 136.23 216.826 116.53 193.636 116.53C168.349 116.53 146.42 136.842 146.42 162.129L153.238 165.677C167.065 172.316 183.157 180.341 200.475 189.129Z" fill="#A5B2CE"/>
<path d="M153.238 165.677L199.679 189.847C199.906 189.641 200.172 189.401 200.475 189.129C183.157 180.341 167.065 172.316 153.238 165.677Z" fill="#A5B2CE"/>
<path d="M295.908 161.649L297.069 159.348L292.574 156.741L291.288 159.291C292.844 160.037 294.388 160.826 295.908 161.649Z" fill="#404040"/>
<path d="M309.102 169.802L310.458 167.113L305.963 164.506L304.755 166.902C306.268 167.877 307.718 168.848 309.102 169.802Z" fill="#404040"/>
<path d="M273.669 152.872C273.669 152.872 273.664 152.876 273.664 152.876C273.638 152.896 273.3 153.154 272.791 153.588C273.176 153.62 273.566 153.665 273.955 153.712L275.019 151.603L277.285 152.746L276.592 154.12C278.279 154.45 279.997 154.908 281.729 155.454L283.031 152.872L271.092 149.365L271.714 150.213L273.669 152.872Z" fill="#404040"/>
<path d="M315.448 174.376L317.217 170.868L313.772 169.035L312.658 168.388L311.204 171.271C312.74 172.362 314.161 173.406 315.448 174.376Z" fill="#404040"/>
<path d="M288.982 158.227L290.374 155.465L288.854 154.583L285.507 153.6L284.157 156.277C285.764 156.86 287.375 157.513 288.982 158.227Z" fill="#404040"/>
<path d="M244.627 158.363C244.543 157.655 244.438 156.953 244.326 156.255C242.991 157.024 241.655 157.819 240.32 158.644C240.352 158.882 240.394 159.118 240.422 159.356L201.051 189.421C202.949 190.385 204.861 191.356 206.787 192.337C219.65 180.968 245.381 160.427 262.717 154.89C265.734 150.551 269.457 147.775 269.763 147.55L271.092 149.365L283.031 152.872L285.507 153.6L288.854 154.583L290.374 155.465L292.574 156.741L297.069 159.348L299.269 160.623L303.764 163.23L304.634 163.735V161.735C306.008 161.735 307.21 161.574 308.325 161.329C297.125 154.139 282.766 146.876 270.432 146.876C264.712 146.876 257.743 149.287 250.429 152.959C250.736 154.48 250.996 156.019 251.182 157.583L244.627 158.363Z" fill="#404040"/>
<path d="M317.501 175.942C319.314 177.347 320.718 178.49 321.64 179.254L321.71 179.114C321.882 177.246 322.025 175.37 322.131 173.484L319.458 172.061L317.501 175.942Z" fill="#404040"/>
<path d="M311.126 163.163C309.508 163.762 307.651 164.141 305.478 164.224L305.963 164.506L310.458 167.113L312.658 168.388L313.772 169.035L317.217 170.868L319.458 172.061L322.131 173.485C322.173 172.739 322.208 171.992 322.239 171.243C319.435 169.039 315.603 166.165 311.126 163.163Z" fill="#404040"/>
<path d="M302.6 165.539L303.764 163.23L299.269 160.623L298.13 162.882C299.654 163.749 301.149 164.639 302.6 165.539Z" fill="#404040"/>
<path d="M304.634 161.735V163.735L305.478 164.224C307.651 164.141 309.508 163.762 311.126 163.163C310.22 162.555 309.281 161.942 308.325 161.329C307.21 161.574 306.008 161.735 304.634 161.735Z" fill="#404040"/>
<path d="M201.051 189.421L200.163 190.099L199.679 189.847C199.215 190.268 198.907 190.551 198.783 190.665L203.261 195.514C204.282 194.571 205.475 193.497 206.787 192.337C204.861 191.356 202.949 190.385 201.051 189.421Z" fill="#404040"/>
<path d="M200.475 189.129C200.666 189.226 200.859 189.324 201.051 189.421L240.422 159.356C240.394 159.118 240.352 158.882 240.32 158.644C222.939 169.38 205.872 184.281 200.475 189.129Z" fill="#404040"/>
<path d="M200.163 190.099L201.051 189.421C200.859 189.324 200.666 189.226 200.475 189.129C200.173 189.401 199.906 189.641 199.679 189.847L200.163 190.099Z" fill="#404040"/>
<path d="M231.007 264.939L231.59 263.783C230.029 262.984 228.486 262.193 226.973 261.418L226.415 262.526C227.948 263.321 229.48 264.127 231.007 264.939Z" fill="#404040"/>
<path d="M244.559 272.38L245.344 270.824C243.821 270.045 242.278 269.256 240.726 268.461L240.028 269.844C241.558 270.693 243.075 271.541 244.559 272.38Z" fill="#404040"/>
<path d="M237.805 268.616L238.466 267.304C236.925 266.515 235.383 265.726 233.849 264.94L233.246 266.137C234.777 266.961 236.298 267.787 237.805 268.616Z" fill="#404040"/>
<path d="M224.157 261.365L224.714 260.26C223.126 259.446 221.583 258.655 220.098 257.893L219.525 259.029C221.062 259.79 222.608 260.573 224.157 261.365Z" fill="#404040"/>
<path d="M217.245 257.913L217.84 256.734C216.202 255.893 214.656 255.1 213.226 254.365L212.564 255.679C214.107 256.399 215.67 257.146 217.245 257.913Z" fill="#404040"/>
<path d="M264.575 284.161L265.978 281.378C264.616 280.681 263.067 279.889 261.36 279.016L260.127 281.46C261.706 282.409 263.191 283.311 264.575 284.161Z" fill="#404040"/>
<path d="M210.257 254.616L210.969 253.203C209.152 252.268 207.589 251.462 206.359 250.825L205.504 252.521C207.059 253.186 208.641 253.881 210.257 254.616Z" fill="#404040"/>
<path d="M251.27 276.228L252.221 274.343C250.722 273.576 249.179 272.786 247.603 271.98L246.768 273.637C248.305 274.514 249.806 275.378 251.27 276.228Z" fill="#404040"/>
<path d="M268.88 282.861C268.674 282.756 268.462 282.647 268.239 282.533L267.433 284.131C267.919 283.712 268.399 283.286 268.88 282.861Z" fill="#404040"/>
<path d="M257.944 280.153L259.099 277.861C257.639 277.114 256.093 276.323 254.481 275.499L253.468 277.508C255.017 278.415 256.509 279.298 257.944 280.153Z" fill="#404040"/>
<path d="M198.309 249.631C199.869 250.209 201.494 250.852 203.158 251.536L204.106 249.654C203.592 249.384 203.303 249.228 203.274 249.206C203.153 249.109 201.513 248.598 199.18 247.903L198.309 249.631Z" fill="#404040"/>
<path d="M184.763 245.403C184.74 245.418 184.438 245.614 183.945 245.965C185.258 246.038 186.724 246.247 188.344 246.596L189.156 244.986C187.264 244.443 185.496 243.938 184.079 243.534L183.856 243.976L184.763 245.403Z" fill="#404040"/>
<path d="M182.993 239.317C162.456 239.317 75.6034 274.212 58.3045 281.246C60.1279 282.906 61.9914 284.523 63.8912 286.097C95.4064 273.315 147.053 253.543 172.072 247.644C176.389 242.952 180.809 240.095 181.226 239.83L182.993 242.618L183.464 243.359C183.659 243.414 183.866 243.473 184.079 243.534C185.496 243.938 187.264 244.443 189.156 244.986C189.968 245.219 190.801 245.459 191.639 245.701C193.37 246.2 195.112 246.706 196.705 247.173C197.587 247.431 198.419 247.677 199.18 247.903C201.513 248.598 203.153 249.109 203.274 249.206C203.303 249.228 203.592 249.384 204.107 249.654C204.632 249.93 205.393 250.326 206.359 250.825C207.589 251.462 209.152 252.268 210.969 253.203C211.683 253.571 212.437 253.959 213.226 254.365C214.656 255.1 216.202 255.893 217.84 256.734C218.575 257.111 219.329 257.498 220.098 257.893C221.583 258.655 223.126 259.446 224.714 260.26C225.459 260.642 226.211 261.027 226.973 261.418C228.486 262.193 230.029 262.984 231.59 263.783C232.34 264.167 233.093 264.553 233.849 264.94C235.383 265.726 236.925 266.515 238.466 267.304C239.221 267.69 239.974 268.076 240.726 268.461C242.278 269.256 243.821 270.045 245.344 270.824C246.103 271.213 246.857 271.598 247.603 271.98C249.179 272.786 250.722 273.576 252.221 274.343C252.987 274.734 253.741 275.12 254.481 275.499C256.093 276.323 257.639 277.114 259.099 277.861C259.877 278.258 260.634 278.645 261.36 279.016C263.067 279.889 264.616 280.681 265.978 281.378C266.805 281.8 267.563 282.188 268.239 282.533C268.462 282.647 268.674 282.756 268.88 282.861C269.72 282.119 270.554 281.369 271.379 280.609C261.949 274.735 204.219 239.317 182.993 239.317Z" fill="#404040"/>
<path d="M195.9 248.769L196.705 247.173C195.112 246.706 193.37 246.2 191.639 245.701L190.878 247.209C192.454 247.635 194.135 248.161 195.9 248.769Z" fill="#404040"/>
<path d="M172.33 113.322L171.171 115.582C169.399 114.673 167.453 114.179 165.282 114.037C153.926 120.45 144.943 130.579 139.99 142.767C141.015 142.514 141.995 142.173 142.922 141.71L144.056 143.981C142.469 144.775 140.769 145.276 138.944 145.548C137.599 149.42 136.655 153.475 136.16 157.668C138.193 158.593 140.311 159.57 142.508 160.594C144.512 134.114 166.683 113.177 193.668 113.177C218.937 113.177 240.347 131.551 244.326 156.255C246.375 155.073 248.414 153.97 250.429 152.959C249.934 150.504 249.283 148.111 248.491 145.786C248.452 145.786 248.419 145.793 248.38 145.793C247.339 145.793 246.325 145.722 245.368 145.582L245.732 143.07C246.305 143.153 246.926 143.168 247.54 143.195C242.634 130.776 233.594 120.548 222.188 114.089C221.571 114.025 220.941 113.973 220.256 113.973C218.103 113.973 216.208 114.3 214.464 114.974L213.549 112.605C214.756 112.139 216.025 111.832 217.363 111.644C212.048 109.259 206.321 107.662 200.334 106.973C198.139 108.083 195.535 108.829 192.142 108.829C189.08 108.829 186.66 108.222 184.6 107.291C179.122 108.156 173.9 109.795 169.043 112.086C170.185 112.392 171.285 112.786 172.33 113.322Z" fill="#404040"/>
<path d="M245.368 145.582C246.325 145.722 247.339 145.793 248.38 145.793C248.419 145.793 248.452 145.786 248.491 145.786C248.194 144.912 247.877 144.048 247.54 143.195C246.926 143.168 246.305 143.152 245.732 143.07L245.368 145.582Z" fill="#404040"/>
<path d="M142.922 141.71C141.995 142.173 141.015 142.514 139.99 142.767C139.618 143.683 139.27 144.61 138.944 145.548C140.769 145.276 142.469 144.775 144.056 143.981L142.922 141.71Z" fill="#404040"/>
<path d="M214.464 114.973C216.208 114.3 218.104 113.973 220.256 113.973C220.941 113.973 221.571 114.025 222.188 114.089C220.622 113.202 219.013 112.385 217.363 111.644C216.025 111.832 214.756 112.139 213.549 112.604L214.464 114.973Z" fill="#404040"/>
<path d="M172.33 113.322C171.285 112.786 170.185 112.392 169.043 112.086C167.762 112.69 166.51 113.343 165.282 114.037C167.453 114.179 169.399 114.673 171.171 115.582L172.33 113.322Z" fill="#404040"/>
<path d="M200.334 106.973C198.143 106.721 195.921 106.576 193.668 106.576C190.583 106.576 187.555 106.824 184.6 107.291C186.66 108.222 189.08 108.829 192.142 108.829C195.535 108.829 198.139 108.083 200.334 106.973Z" fill="#404040"/>
<path d="M136.16 157.668C136.011 158.93 135.888 160.2 135.822 161.485L136.497 161.83L138.759 162.986L141.722 164.5H142.344C142.344 163.185 142.41 161.885 142.508 160.594C140.311 159.57 138.193 158.593 136.16 157.668Z" fill="#404040"/>
<path d="M137.995 164.5H141.722L138.759 162.986L137.995 164.5Z" fill="#404040"/>
<path d="M136.497 161.83L135.822 161.485C135.792 162.074 135.788 162.669 135.775 163.262L136.497 161.83Z" fill="#404040"/>
<path d="M244.326 156.255C244.438 156.953 244.543 157.655 244.627 158.363L251.182 157.583C250.996 156.019 250.736 154.48 250.429 152.959C248.414 153.97 246.375 155.073 244.326 156.255Z" fill="#404040"/>
<path d="M132.201 186.725C131.019 185.465 129.636 184.63 128.122 184.082L126.159 187.976L130.953 188.33V189.985L132.442 187.031C132.358 186.934 132.29 186.819 132.201 186.725Z" fill="#404040"/>
<path d="M119.919 183.19L117.817 187.359L123.417 187.773L125.602 183.439C123.797 183.14 121.876 183.11 119.919 183.19Z" fill="#404040"/>
<path d="M259.204 237.341L258.177 239.379L264.364 239.721L265.455 237.556L259.204 237.341Z" fill="#404040"/>
<path d="M116.24 183.418C114.464 183.547 112.713 183.673 111.009 183.703L109.476 186.742L115.075 187.156L116.987 183.364C116.738 183.382 116.489 183.4 116.24 183.418Z" fill="#404040"/>
<path d="M97.2783 178.359C97.09 178.12 96.9314 177.883 96.7592 177.645L96.2685 178.618L100.129 182.481L100.659 181.431C99.4473 180.664 98.3114 179.673 97.2783 178.359Z" fill="#404040"/>
<path d="M134.046 189.491L130.953 195.625V207.145L135.617 197.895C135.6 194.454 135.087 191.674 134.046 189.491Z" fill="#404040"/>
<path d="M285.719 240.413L283.614 240.788L275.546 240.341L272.781 240.188L267.129 239.875L264.364 239.721L258.177 239.379L255.411 239.225L249.76 238.912L246.994 238.759L240.807 238.416L238.042 238.263L232.39 237.95L229.625 237.797L228.832 237.753L224.684 234.983L222.557 233.563L218.212 230.661L216.085 229.241L211.327 226.065L210.263 225.354L209.222 224.601L204.966 221.52L202.883 220.013L198.224 216.641L196.141 215.133L192.988 212.851L191.431 212.953L188.491 213.147L182.483 213.541L179.542 213.735L173.535 214.13L170.593 214.323L165.151 214.681L164.513 214.862L161.192 215.81L154.408 217.744L151.086 218.692L144.303 220.626L142.642 221.1L141.682 220.185L137.759 216.448L135.837 214.618L131.914 210.88L130.953 209.965V188.33L126.159 187.976L123.417 187.773L117.817 187.359L115.075 187.156L109.476 186.742L106.734 186.54L103.983 186.336L102.02 184.372L100.129 182.481L96.2685 178.618L94.3779 176.727L89.8794 172.226L97.5315 154.65C96.4038 154.931 95.245 155.242 94.0269 155.613C91.222 158.54 88.7607 162.119 87.7957 166.28C86.5241 171.762 87.9683 177.2 92.0893 182.439C99.0465 191.287 108.846 190.576 116.72 190.001C121.496 189.654 125.617 189.354 127.387 191.242C128.558 192.489 129.714 195.716 128.576 204.003C127.63 210.895 128.895 216.208 132.336 219.795C136.004 223.62 141.805 225.176 149.597 224.439C156.23 223.804 161.528 222.208 165.795 219.559C178.084 211.933 198.494 213.883 211.387 230.346C217.478 238.127 226.834 242.807 237.064 243.184L295.124 245.182C292.757 244.003 289.698 242.451 285.719 240.413Z" fill="#404040"/>
<path d="M106.001 146.867C105.986 146.874 105.926 146.904 105.895 146.919C105.937 146.92 105.983 146.917 106.026 146.917L106.001 146.867Z" fill="#404040"/>
<path d="M241.654 236.737L240.807 238.416L246.994 238.759L247.905 236.952L241.654 236.737Z" fill="#404040"/>
<path d="M102.929 182.569L102.02 184.372L103.983 186.336L106.734 186.54L108.193 183.646C106.347 183.525 104.583 183.204 102.929 182.569Z" fill="#404040"/>
<path d="M94.2221 167.786C95.5673 161.95 101.544 157.288 105.435 154.797L106.103 153.473C103.744 153.393 100.834 153.828 97.5315 154.65L89.8793 172.226L94.3778 176.727L95.2048 175.087C93.9989 172.62 93.6637 170.207 94.2221 167.786Z" fill="#404040"/>
<path d="M250.699 237.048L249.76 238.912L255.411 239.225L256.41 237.245L250.699 237.048Z" fill="#404040"/>
<path d="M276.754 237.945L275.546 240.341L283.614 240.788L285.719 240.413C284.329 239.701 282.835 238.934 281.21 238.098L276.754 237.945Z" fill="#404040"/>
<path d="M268.25 237.652L267.129 239.875L272.781 240.188L273.96 237.849L268.25 237.652Z" fill="#404040"/>
<path d="M176.065 209.112L173.535 214.13L179.542 213.735L182.071 208.718C180.033 208.699 178.025 208.837 176.065 209.112Z" fill="#404040"/>
<path d="M216.584 226.277C215.497 224.888 214.357 223.598 213.182 222.384L211.327 226.065L216.085 229.241L217.217 226.997C217.01 226.752 216.782 226.53 216.584 226.277Z" fill="#404040"/>
<path d="M207.176 217.138L204.966 221.52L209.222 224.601L211.277 220.525C209.949 219.299 208.582 218.163 207.176 217.138Z" fill="#404040"/>
<path d="M205.06 215.695C203.44 214.649 201.783 213.722 200.1 212.92L198.224 216.641L202.883 220.013L205.06 215.695Z" fill="#404040"/>
<path d="M219.062 228.976L218.212 230.661L222.557 233.563L223.211 232.264C221.718 231.315 220.338 230.204 219.062 228.976Z" fill="#404040"/>
<path d="M237.3 236.587C235.943 236.537 234.617 236.361 233.308 236.13L232.39 237.95L238.041 238.263L238.86 236.641L237.3 236.587Z" fill="#404040"/>
<path d="M184.851 208.845L182.483 213.541L188.491 213.147L190.272 209.613C188.461 209.237 186.65 208.982 184.851 208.845Z" fill="#404040"/>
<path d="M225.422 233.518L224.684 234.983L228.832 237.753L229.624 237.797L230.748 235.568C228.892 235.06 227.107 234.379 225.422 233.518Z" fill="#404040"/>
<path d="M192.812 210.215L191.431 212.953L192.988 212.851L196.141 215.133L197.771 211.9C196.132 211.233 194.476 210.668 192.812 210.215Z" fill="#404040"/>
<path d="M148.969 217.867C147.926 217.967 146.786 218.022 145.625 218.004L144.303 220.626L151.086 218.692L151.674 217.526C150.802 217.659 149.91 217.777 148.969 217.867Z" fill="#404040"/>
<path d="M137.997 215.974L137.758 216.448L141.682 220.185L142.889 217.791C141.068 217.525 139.35 216.968 137.997 215.974Z" fill="#404040"/>
<path d="M154.818 216.931L154.408 217.744L161.192 215.81L162.054 214.1C160.008 215.328 157.618 216.269 154.818 216.931Z" fill="#404040"/>
<path d="M135.115 204.902C135.138 204.735 135.147 204.588 135.169 204.424L131.913 210.88L135.837 214.618L136.171 213.954C134.941 211.852 134.576 208.828 135.115 204.902Z" fill="#404040"/>
<path d="M165.946 212.022L164.513 214.862L165.151 214.681L170.593 214.323L172.935 209.679C170.485 210.231 168.142 211.02 165.946 212.022Z" fill="#404040"/>
<path d="M97.687 154.293L107.407 150.887L107.86 150.728L107.433 149.841L106.026 146.917C105.983 146.917 105.937 146.92 105.895 146.919C105.085 147.316 99.0209 150.404 94.0269 155.613C95.2449 155.242 96.4037 154.931 97.5314 154.65L97.687 154.293Z" fill="#404040"/>
<path d="M281.21 238.098C282.835 238.934 284.329 239.701 285.719 240.413L289.098 239.812L286.072 238.266L281.21 238.098Z" fill="#404040"/>
<path d="M107.432 149.841L107.86 150.728L107.861 150.728L107.432 149.841Z" fill="#404040"/>
<path d="M106.103 153.473L107.407 150.887L97.687 154.293L97.5314 154.65C100.834 153.828 103.744 153.393 106.103 153.473Z" fill="#404040"/>
<path d="M289.098 239.812L285.719 240.413C289.698 242.451 292.757 244.003 295.124 245.182L295.207 245.185L295.435 238.588L286.072 238.266L289.098 239.812Z" fill="#404040"/>
<path d="M299.703 211.24L299.44 211.763L302.053 218.1L302.901 216.419C301.53 215.027 300.387 213.323 299.703 211.24Z" fill="#404040"/>
<path d="M299.087 205.2C299.419 201.462 299.39 198.196 299.082 195.312L295.547 202.323L298.161 208.662L299.028 206.942C299.021 206.379 299.033 205.804 299.087 205.2Z" fill="#404040"/>
<path d="M275.68 173.089L273.854 176.711L278.794 178.433L280.889 174.277C279.091 173.792 277.327 173.422 275.68 173.089Z" fill="#404040"/>
<path d="M295.841 184.581L293.127 189.964L294.73 198.307L298.372 191.083C297.77 188.56 296.905 186.414 295.841 184.581Z" fill="#404040"/>
<path d="M307.909 223.646L303.407 221.053L303.228 220.95L302.053 218.1L299.44 211.763L298.161 208.662L295.547 202.323L295.461 202.115L294.73 198.307L293.127 189.964L292.343 185.881L291.782 182.962L288.57 181.842L286.152 180.999L281.211 179.276L278.794 178.434L273.854 176.711L271.436 175.868L266.495 174.146L265.788 173.899L265.44 170.6L264.455 161.247L268.546 153.588C266.748 153.779 264.793 154.227 262.717 154.89C259.681 159.257 257.36 165.208 259.96 171.739C262.086 177.083 268.076 178.289 273.869 179.457C284.418 181.581 294.383 183.587 292.512 204.614C291.318 218.037 301.023 224.871 309.215 227.613C309.589 226.757 309.959 225.899 310.319 225.035L310.112 224.916L307.909 223.646Z" fill="#404040"/>
<path d="M310.112 224.916L310.319 225.035C310.706 224.107 311.091 223.178 311.46 222.242L310.112 224.916Z" fill="#404040"/>
<path d="M266.091 169.297C263.362 162.438 270.284 155.728 272.791 153.588C271.995 153.521 271.206 153.477 270.432 153.477C269.827 153.477 269.194 153.519 268.546 153.588L264.455 161.247L265.44 170.6L266.095 169.302L266.091 169.297Z" fill="#404040"/>
<path d="M307.909 223.647L309.425 220.64C307.936 220.024 306.356 219.205 304.884 218.124L303.407 221.053L307.909 223.647Z" fill="#404040"/>
<path d="M290.276 178.458L288.57 181.842L291.782 182.962L292.343 185.881L294.207 182.184C293.028 180.704 291.7 179.477 290.276 178.458Z" fill="#404040"/>
<path d="M268.056 171.05L266.495 174.146L271.436 175.868L273.105 172.558C271.145 172.139 269.357 171.68 268.056 171.05Z" fill="#404040"/>
<path d="M283.356 175.023L281.211 179.276L286.152 180.999L288.121 177.094C286.58 176.239 284.972 175.568 283.356 175.023Z" fill="#404040"/>
<path d="M272.791 153.588C273.3 153.154 273.638 152.896 273.664 152.876L271.713 150.213L271.092 149.365L270.842 149.291L268.546 153.588C269.194 153.519 269.827 153.477 270.432 153.477C271.206 153.477 271.995 153.521 272.791 153.588Z" fill="#404040"/>
<path d="M271.092 149.365L269.763 147.55C269.457 147.775 265.734 150.551 262.717 154.89C264.793 154.227 266.748 153.779 268.546 153.588L270.842 149.291L271.092 149.365Z" fill="#404040"/>
<path d="M271.714 150.213L273.664 152.876L273.669 152.872L271.714 150.213Z" fill="#404040"/>
<path d="M207.947 316.312C208.536 316.143 209.12 315.963 209.706 315.788C209.469 315.141 209.293 314.523 209.153 313.922L207.947 316.312Z" fill="#404040"/>
<path d="M205.775 307.999L210.059 294.964L210.208 294.511L208.847 291.73L205.985 285.885L205.285 284.455L203.954 284.275L198.517 283.537L195.856 283.176L190.42 282.438L187.758 282.077L182.322 281.339L179.66 280.977L177.472 280.681L174.908 278.883L172.807 277.41L170.165 275.557L169.52 272.408L168.7 268.397L167.023 260.203L166.87 259.453L168.222 257.826L177.639 246.492C175.975 246.777 174.117 247.162 172.072 247.644C166.294 253.925 160.7 263.497 165.137 274.587C169.049 284.365 178.411 283.94 186.671 283.554C193.612 283.235 200.153 282.932 204.266 287.644C208.313 292.276 207.157 294.971 205.06 299.865C203.102 304.431 200.739 309.968 203.335 317.555C204.867 317.166 206.392 316.758 207.906 316.325L206.961 312.631L205.775 307.999Z" fill="#404040"/>
<path d="M171.265 272.135C171.002 271.477 170.808 270.825 170.645 270.177L169.52 272.408L170.165 275.557L172.807 277.41L173.792 275.456C172.709 274.705 171.868 273.643 171.265 272.135Z" fill="#404040"/>
<path d="M201.279 278.061L198.517 283.537L203.954 284.275L205.929 280.357C204.456 279.342 202.897 278.591 201.279 278.061Z" fill="#404040"/>
<path d="M193.25 276.824L190.42 282.438L195.856 283.176L198.763 277.41C196.955 277.044 195.104 276.877 193.25 276.824Z" fill="#404040"/>
<path d="M212.87 289.388L210.059 294.964L205.775 307.999L206.961 312.631L209.028 308.53C209.418 306.459 210.245 304.522 211.127 302.465C212.705 298.784 214.543 294.447 212.87 289.388Z" fill="#404040"/>
<path d="M209.238 283.3C208.822 282.824 208.393 282.387 207.955 281.977L205.985 285.885L208.847 291.73L211.517 286.435C210.916 285.416 210.175 284.373 209.238 283.3Z" fill="#404040"/>
<path d="M186.368 276.961C185.718 276.991 185.097 277.017 184.489 277.039L182.322 281.339L187.758 282.076L190.412 276.814C189.047 276.841 187.692 276.9 186.368 276.961Z" fill="#404040"/>
<path d="M182.993 245.918C182.957 245.918 182.91 245.923 182.874 245.923L182.183 247.294C182.893 246.731 183.499 246.282 183.945 245.965C183.625 245.948 183.292 245.918 182.993 245.918Z" fill="#404040"/>
<path d="M176.102 276.515L174.908 278.883L177.472 280.681L179.66 280.977L181.616 277.098C179.453 277.097 177.623 276.95 176.102 276.515Z" fill="#404040"/>
<path d="M176.821 252.29L179.915 246.153C179.206 246.241 178.448 246.353 177.639 246.492L168.222 257.826L167.023 260.203L168.7 268.397L170.271 265.28C170.744 260.251 173.696 255.74 176.821 252.29Z" fill="#404040"/>
<path d="M181.593 242.826C181.13 242.695 180.858 242.618 180.858 242.618L177.639 246.492C178.448 246.353 179.206 246.241 179.915 246.153L181.593 242.826Z" fill="#404040"/>
<path d="M182.993 245.918C183.292 245.918 183.625 245.948 183.945 245.965C184.438 245.614 184.74 245.418 184.763 245.403L183.856 243.976L183.855 243.978L182.874 245.923C182.911 245.923 182.957 245.918 182.993 245.918Z" fill="#404040"/>
<path d="M177.639 246.492L180.858 242.618C180.858 242.618 181.129 242.695 181.593 242.826C182.043 242.954 182.678 243.135 183.462 243.358L182.993 242.618L181.226 239.83C180.809 240.095 176.389 242.952 172.072 247.644C174.117 247.162 175.975 246.777 177.639 246.492Z" fill="#404040"/>
<path d="M183.464 243.359L182.993 242.618L183.462 243.358L183.464 243.359Z" fill="#404040"/>
<path d="M273.955 153.712L266.095 169.302C266.383 170.02 267.089 170.581 268.056 171.05L276.592 154.12C275.703 153.946 274.826 153.817 273.955 153.712Z" fill="#404040"/>
<path d="M276.592 154.12L277.285 152.746L275.019 151.603L273.955 153.712C274.826 153.817 275.703 153.946 276.592 154.12Z" fill="#404040"/>
<path d="M266.095 169.302L265.44 170.6L265.788 173.899L266.495 174.146L268.056 171.05C267.089 170.581 266.383 170.02 266.095 169.302Z" fill="#404040"/>
<path d="M281.729 155.454L273.105 172.558C273.781 172.702 274.469 172.845 275.172 172.986C275.339 173.02 275.511 173.055 275.68 173.089L284.157 156.277C283.346 155.983 282.536 155.708 281.729 155.454Z" fill="#404040"/>
<path d="M284.157 156.277L285.507 153.6L283.031 152.872L281.729 155.454C282.536 155.708 283.346 155.983 284.157 156.277Z" fill="#404040"/>
<path d="M275.172 172.986C274.469 172.845 273.781 172.702 273.105 172.558L271.436 175.868L273.854 176.711L275.68 173.089C275.511 173.055 275.339 173.02 275.172 172.986Z" fill="#404040"/>
<path d="M288.982 158.227L280.889 174.277C281.708 174.499 282.532 174.744 283.356 175.023L291.288 159.291C290.521 158.924 289.753 158.57 288.982 158.227Z" fill="#404040"/>
<path d="M291.288 159.291L292.574 156.741L290.374 155.465L288.982 158.227C289.753 158.57 290.521 158.924 291.288 159.291Z" fill="#404040"/>
<path d="M280.889 174.277L278.794 178.433L281.211 179.276L283.356 175.023C282.532 174.744 281.708 174.499 280.889 174.277Z" fill="#404040"/>
<path d="M295.908 161.649L288.121 177.094C288.858 177.503 289.578 177.958 290.276 178.458L298.13 162.882C297.396 162.464 296.655 162.054 295.908 161.649Z" fill="#404040"/>
<path d="M298.13 162.882L299.269 160.623L297.069 159.348L295.908 161.649C296.655 162.054 297.396 162.464 298.13 162.882Z" fill="#404040"/>
<path d="M288.121 177.094L286.152 180.999L288.57 181.842L290.276 178.458C289.578 177.958 288.858 177.503 288.121 177.094Z" fill="#404040"/>
<path d="M295.841 184.581L304.755 166.902C304.048 166.447 303.33 165.992 302.6 165.539L294.207 182.184C294.791 182.918 295.338 183.714 295.841 184.581Z" fill="#404040"/>
<path d="M304.634 164.275V163.735L303.764 163.23L302.6 165.539C303.331 165.992 304.048 166.447 304.755 166.902L305.963 164.506L305.478 164.224C305.191 164.235 304.933 164.275 304.634 164.275Z" fill="#404040"/>
<path d="M304.634 163.735V164.275C304.933 164.275 305.19 164.235 305.478 164.224L304.634 163.735Z" fill="#404040"/>
<path d="M294.207 182.184L292.343 185.881L293.127 189.964L295.841 184.581C295.338 183.714 294.791 182.918 294.207 182.184Z" fill="#404040"/>
<path d="M299.082 195.312L311.204 171.271C310.525 170.789 309.823 170.299 309.102 169.802L298.372 191.083C298.684 192.387 298.921 193.798 299.082 195.312Z" fill="#404040"/>
<path d="M311.204 171.271L312.658 168.388L310.458 167.113L309.102 169.802C309.823 170.299 310.525 170.789 311.204 171.271Z" fill="#404040"/>
<path d="M298.372 191.083L294.73 198.307L295.461 202.115L295.547 202.323L299.082 195.312C298.921 193.798 298.684 192.387 298.372 191.083Z" fill="#404040"/>
<path d="M299.028 206.942C299.046 208.526 299.283 209.958 299.703 211.24L317.501 175.942C316.867 175.45 316.174 174.922 315.448 174.376L299.028 206.942Z" fill="#404040"/>
<path d="M317.501 175.942L319.458 172.061L317.217 170.868L315.448 174.376C316.174 174.922 316.867 175.45 317.501 175.942Z" fill="#404040"/>
<path d="M299.028 206.942L298.161 208.662L299.44 211.763L299.703 211.24C299.283 209.958 299.046 208.526 299.028 206.942Z" fill="#404040"/>
<path d="M321.64 179.254L302.901 216.419C303.522 217.051 304.191 217.615 304.884 218.124L320.862 186.434C321.192 184.072 321.47 181.694 321.694 179.299C321.676 179.284 321.658 179.269 321.64 179.254Z" fill="#404040"/>
<path d="M321.71 179.114L321.64 179.254C321.658 179.269 321.676 179.284 321.694 179.299C321.699 179.237 321.705 179.175 321.71 179.114Z" fill="#404040"/>
<path d="M303.228 220.95L303.407 221.053L304.884 218.124C304.191 217.615 303.522 217.051 302.901 216.419L302.053 218.1L303.228 220.95Z" fill="#404040"/>
<path d="M311.75 221.481C313.729 216.384 315.447 211.159 316.895 205.824L309.425 220.64C310.24 220.977 311.026 221.255 311.75 221.481Z" fill="#404040"/>
<path d="M310.112 224.916L311.46 222.242C311.559 221.989 311.652 221.734 311.75 221.481C311.026 221.255 310.24 220.977 309.425 220.64L307.909 223.646L310.112 224.916Z" fill="#404040"/>
<path d="M166.87 259.453L167.023 260.203L168.222 257.826L166.87 259.453Z" fill="#404040"/>
<path d="M182.183 247.294C180.684 248.482 178.725 250.188 176.821 252.29L170.271 265.28C170.122 266.867 170.226 268.505 170.645 270.177L182.183 247.294Z" fill="#404040"/>
<path d="M184.079 243.534C183.866 243.473 183.659 243.414 183.464 243.359L183.856 243.976L184.079 243.534Z" fill="#404040"/>
<path d="M170.271 265.28L168.7 268.397L169.52 272.408L170.645 270.177C170.226 268.505 170.122 266.867 170.271 265.28Z" fill="#404040"/>
<path d="M182.183 247.294L182.874 245.923C182.027 245.929 181.022 246.015 179.915 246.153L176.821 252.29C178.725 250.188 180.684 248.482 182.183 247.294Z" fill="#404040"/>
<path d="M183.855 243.978L183.856 243.976L183.464 243.359L183.462 243.358L183.855 243.978Z" fill="#404040"/>
<path d="M182.874 245.923L183.855 243.978L183.462 243.358C182.678 243.135 182.043 242.954 181.593 242.826L179.915 246.153C181.022 246.015 182.027 245.929 182.874 245.923Z" fill="#404040"/>
<path d="M176.102 276.515L190.878 247.209C189.996 246.97 189.157 246.772 188.344 246.596L173.792 275.456C174.464 275.923 175.233 276.267 176.102 276.515Z" fill="#404040"/>
<path d="M190.878 247.209L191.639 245.701C190.801 245.459 189.968 245.219 189.156 244.986L188.344 246.596C189.157 246.772 189.996 246.97 190.878 247.209Z" fill="#404040"/>
<path d="M173.792 275.456L172.807 277.41L174.908 278.883L176.102 276.515C175.233 276.267 174.464 275.922 173.792 275.456Z" fill="#404040"/>
<path d="M184.489 277.039L198.309 249.631C197.49 249.327 196.687 249.04 195.9 248.769L181.616 277.098C182.516 277.099 183.472 277.077 184.489 277.039Z" fill="#404040"/>
<path d="M198.309 249.631L199.18 247.903C198.419 247.677 197.587 247.431 196.705 247.173L195.9 248.769C196.687 249.04 197.49 249.327 198.309 249.631Z" fill="#404040"/>
<path d="M181.616 277.098L179.66 280.977L182.322 281.339L184.489 277.039C183.472 277.077 182.516 277.099 181.616 277.098Z" fill="#404040"/>
<path d="M193.25 276.824L205.504 252.521C204.713 252.183 203.93 251.854 203.158 251.536L190.412 276.814C191.355 276.795 192.302 276.796 193.25 276.824Z" fill="#404040"/>
<path d="M205.504 252.521L206.359 250.825C205.393 250.326 204.632 249.93 204.107 249.654L203.158 251.536C203.93 251.854 204.713 252.183 205.504 252.521Z" fill="#404040"/>
<path d="M190.412 276.814L187.758 282.076L190.42 282.438L193.25 276.824C192.302 276.796 191.355 276.795 190.412 276.814Z" fill="#404040"/>
<path d="M201.279 278.061L212.564 255.679C211.79 255.318 211.02 254.963 210.257 254.616L198.763 277.41C199.613 277.581 200.454 277.791 201.279 278.061Z" fill="#404040"/>
<path d="M212.564 255.679L213.226 254.365C212.437 253.959 211.683 253.571 210.969 253.203L210.257 254.616C211.02 254.963 211.79 255.318 212.564 255.679Z" fill="#404040"/>
<path d="M198.763 277.41L195.856 283.176L198.517 283.537L201.279 278.061C200.454 277.791 199.613 277.581 198.763 277.41Z" fill="#404040"/>
<path d="M207.955 281.977L219.525 259.029C218.762 258.651 218.004 258.282 217.245 257.913L205.929 280.357C206.624 280.836 207.303 281.366 207.955 281.977Z" fill="#404040"/>
<path d="M219.525 259.029L220.098 257.893C219.329 257.498 218.575 257.111 217.84 256.734L217.245 257.913C218.004 258.282 218.762 258.651 219.525 259.029Z" fill="#404040"/>
<path d="M205.929 280.357L203.954 284.275L205.285 284.455L205.985 285.885L207.955 281.977C207.303 281.366 206.624 280.837 205.929 280.357Z" fill="#404040"/>
<path d="M212.87 289.388L226.415 262.526C225.661 262.135 224.91 261.75 224.157 261.365L211.517 286.435C212.113 287.446 212.553 288.429 212.87 289.388Z" fill="#404040"/>
<path d="M226.415 262.526L226.973 261.418C226.211 261.027 225.459 260.642 224.714 260.26L224.157 261.365C224.91 261.75 225.661 262.135 226.415 262.526Z" fill="#404040"/>
<path d="M211.517 286.435L208.847 291.73L210.208 294.511L210.059 294.964L212.87 289.388C212.553 288.429 212.113 287.446 211.517 286.435Z" fill="#404040"/>
<path d="M209.028 308.53C208.715 310.195 208.694 311.951 209.153 313.921L233.246 266.137C232.501 265.736 231.756 265.337 231.007 264.939L209.028 308.53Z" fill="#404040"/>
<path d="M233.246 266.137L233.849 264.94C233.094 264.553 232.34 264.167 231.59 263.783L231.007 264.939C231.756 265.337 232.501 265.736 233.246 266.137Z" fill="#404040"/>
<path d="M209.153 313.921C208.694 311.951 208.715 310.195 209.028 308.53L206.961 312.631L207.906 316.324C207.92 316.321 207.934 316.316 207.947 316.312L209.153 313.921Z" fill="#404040"/>
<path d="M240.028 269.844C239.29 269.435 238.551 269.026 237.805 268.616L214.839 314.164C215.997 313.774 217.147 313.368 218.293 312.952L240.028 269.844Z" fill="#404040"/>
<path d="M240.028 269.844L240.726 268.461C239.974 268.076 239.221 267.69 238.466 267.304L237.805 268.616C238.551 269.026 239.29 269.435 240.028 269.844Z" fill="#404040"/>
<path d="M244.559 272.38L225.532 310.116C226.754 309.602 227.968 309.074 229.174 308.531L246.768 273.637C246.036 273.22 245.305 272.802 244.559 272.38Z" fill="#404040"/>
<path d="M246.768 273.637L247.603 271.98C246.857 271.598 246.103 271.213 245.344 270.824L244.559 272.38C245.305 272.802 246.036 273.22 246.768 273.637Z" fill="#404040"/>
<path d="M236.86 304.808C238.171 304.129 239.469 303.43 240.758 302.716L253.467 277.508C252.748 277.087 252.011 276.659 251.27 276.228L236.86 304.808Z" fill="#404040"/>
<path d="M253.467 277.508L254.481 275.499C253.741 275.12 252.987 274.734 252.221 274.343L251.27 276.228C252.011 276.659 252.748 277.087 253.467 277.508Z" fill="#404040"/>
<path d="M257.944 280.153L249.051 297.79C250.487 296.876 251.907 295.938 253.311 294.98L260.127 281.46C259.416 281.032 258.69 280.598 257.944 280.153Z" fill="#404040"/>
<path d="M260.127 281.46L261.36 279.016C260.634 278.645 259.877 278.258 259.099 277.861L257.944 280.153C258.69 280.598 259.416 281.032 260.127 281.46Z" fill="#404040"/>
<path d="M262.558 288.161C263.791 287.182 265.006 286.182 266.208 285.167C265.681 284.841 265.138 284.506 264.575 284.161L262.558 288.161Z" fill="#404040"/>
<path d="M266.208 285.167C266.617 284.822 267.028 284.48 267.433 284.131L268.239 282.533C267.563 282.188 266.805 281.8 265.978 281.378L264.575 284.161C265.138 284.506 265.681 284.841 266.208 285.167Z" fill="#404040"/>
<path d="M107.869 153.642C107.727 153.618 107.56 153.618 107.412 153.598C106.864 153.91 106.192 154.313 105.435 154.797L95.2048 175.087C95.6178 175.932 96.136 176.784 96.7592 177.645L108.769 153.827C108.448 153.753 108.144 153.689 107.869 153.642Z" fill="#404040"/>
<path d="M107.412 153.599C107.56 153.618 107.727 153.618 107.869 153.642C108.144 153.689 108.448 153.754 108.769 153.827L110.861 149.676L107.861 150.728L108.868 152.813C108.842 152.825 108.28 153.105 107.412 153.599Z" fill="#404040"/>
<path d="M106.103 153.473L105.435 154.797C106.192 154.313 106.864 153.91 107.412 153.598C106.99 153.543 106.568 153.488 106.103 153.473Z" fill="#404040"/>
<path d="M95.2047 175.087L94.3778 176.727L96.2684 178.618L96.7591 177.645C96.1359 176.784 95.6178 175.932 95.2047 175.087Z" fill="#404040"/>
<path d="M107.412 153.599C108.28 153.105 108.842 152.825 108.868 152.813L107.861 150.728L107.407 150.887L106.103 153.473C106.568 153.488 106.99 153.543 107.412 153.599Z" fill="#404040"/>
<path d="M113.794 155.378L100.659 181.43C101.388 181.891 102.145 182.268 102.929 182.569L116.189 156.27C115.349 155.947 114.545 155.647 113.794 155.378Z" fill="#404040"/>
<path d="M116.189 156.27L118.121 152.439L115.859 151.283L113.794 155.378C114.545 155.647 115.348 155.947 116.189 156.27Z" fill="#404040"/>
<path d="M100.658 181.43L100.129 182.481L102.02 184.372L102.929 182.569C102.145 182.268 101.388 181.891 100.658 181.43Z" fill="#404040"/>
<path d="M121.019 158.208L108.193 183.646C109.114 183.706 110.054 183.72 111.009 183.703L123.365 159.196C122.56 158.853 121.779 158.523 121.019 158.208Z" fill="#404040"/>
<path d="M123.365 159.196L125 155.955L122.738 154.799L121.019 158.208C121.779 158.523 122.56 158.852 123.365 159.196Z" fill="#404040"/>
<path d="M108.193 183.646L106.734 186.54L109.476 186.742L111.009 183.703C110.054 183.72 109.114 183.706 108.193 183.646Z" fill="#404040"/>
<path d="M116.987 183.364C117.966 183.293 118.946 183.23 119.919 183.19L130.45 162.304C129.66 161.95 128.888 161.606 128.128 161.269L116.987 183.364Z" fill="#404040"/>
<path d="M130.45 162.304L131.879 159.47L129.618 158.314L128.128 161.269C128.888 161.606 129.66 161.95 130.45 162.304Z" fill="#404040"/>
<path d="M116.987 183.364L115.075 187.156L117.817 187.359L119.919 183.19C118.946 183.23 117.966 183.293 116.987 183.364Z" fill="#404040"/>
<path d="M125.601 183.439C126.473 183.584 127.316 183.791 128.122 184.082L137.483 165.517C136.703 165.155 135.933 164.8 135.175 164.452L125.601 183.439Z" fill="#404040"/>
<path d="M135.775 163.262L135.175 164.452C135.934 164.8 136.703 165.155 137.483 165.516L137.995 164.5H135.744C135.744 164.085 135.766 163.675 135.775 163.262Z" fill="#404040"/>
<path d="M135.744 164.5H137.995L138.759 162.986L136.497 161.83L135.775 163.262C135.766 163.675 135.744 164.085 135.744 164.5Z" fill="#404040"/>
<path d="M125.601 183.439L123.417 187.773L126.159 187.976L128.122 184.082C127.316 183.791 126.473 183.584 125.601 183.439Z" fill="#404040"/>
<path d="M134.046 189.491L144.48 168.797C143.706 168.43 142.941 168.069 142.183 167.713L132.442 187.031C133.069 187.753 133.606 188.568 134.046 189.491Z" fill="#404040"/>
<path d="M144.48 168.797L145.637 166.501L143.377 165.345L142.183 167.713C142.941 168.069 143.706 168.43 144.48 168.797Z" fill="#404040"/>
<path d="M132.442 187.031L130.953 189.985V195.625L134.046 189.491C133.606 188.568 133.069 187.753 132.442 187.031Z" fill="#404040"/>
<path d="M135.169 204.424L151.452 172.128C150.683 171.757 149.921 171.392 149.163 171.029L135.617 197.895C135.626 199.851 135.483 202.014 135.169 204.424Z" fill="#404040"/>
<path d="M151.452 172.128L152.517 170.016L150.256 168.861L149.163 171.029C149.921 171.392 150.683 171.757 151.452 172.128Z" fill="#404040"/>
<path d="M135.617 197.895L130.953 207.145V209.965L131.913 210.88L135.169 204.424C135.483 202.014 135.626 199.851 135.617 197.895Z" fill="#404040"/>
<path d="M137.099 215.225C137.37 215.507 137.682 215.743 137.997 215.974L158.405 175.498C157.64 175.125 156.878 174.754 156.122 174.387L136.172 213.954C136.443 214.418 136.742 214.853 137.099 215.225Z" fill="#404040"/>
<path d="M158.405 175.498L159.397 173.532L157.136 172.377L156.122 174.387C156.878 174.754 157.64 175.125 158.405 175.498Z" fill="#404040"/>
<path d="M137.099 215.225C136.742 214.853 136.443 214.418 136.172 213.954L135.837 214.618L137.758 216.448L137.997 215.974C137.682 215.743 137.37 215.507 137.099 215.225Z" fill="#404040"/>
<path d="M145.625 218.004L165.343 178.898C164.579 178.522 163.82 178.149 163.064 177.778L142.889 217.791C143.792 217.923 144.714 217.99 145.625 218.004Z" fill="#404040"/>
<path d="M165.343 178.898L166.276 177.047L164.015 175.892L163.064 177.778C163.82 178.149 164.579 178.522 165.343 178.898Z" fill="#404040"/>
<path d="M142.889 217.791L141.682 220.185L142.642 221.1L144.303 220.626L145.625 218.004C144.714 217.99 143.792 217.923 142.889 217.791Z" fill="#404040"/>
<path d="M154.818 216.931L172.267 182.324C171.507 181.946 170.747 181.569 169.993 181.195L151.674 217.526C152.771 217.36 153.825 217.166 154.818 216.931Z" fill="#404040"/>
<path d="M172.267 182.324L173.155 180.563L170.894 179.407L169.993 181.195C170.747 181.569 171.507 181.946 172.267 182.324Z" fill="#404040"/>
<path d="M151.674 217.526L151.086 218.692L154.408 217.744L154.818 216.931C153.825 217.166 152.771 217.36 151.674 217.526Z" fill="#404040"/>
<path d="M162.314 213.952C163.467 213.236 164.685 212.597 165.946 212.022L179.181 185.771C178.422 185.391 177.665 185.013 176.91 184.636L162.054 214.1C162.139 214.049 162.231 214.003 162.314 213.952Z" fill="#404040"/>
<path d="M179.181 185.771L180.035 184.078L177.774 182.923L176.91 184.636C177.665 185.013 178.422 185.391 179.181 185.771Z" fill="#404040"/>
<path d="M162.314 213.952C162.23 214.003 162.139 214.049 162.054 214.1L161.192 215.81L164.513 214.862L165.945 212.022C164.685 212.597 163.467 213.236 162.314 213.952Z" fill="#404040"/>
<path d="M176.065 209.112L186.086 189.236C185.329 188.855 184.572 188.474 183.818 188.095L172.935 209.679C173.961 209.447 175.006 209.26 176.065 209.112Z" fill="#404040"/>
<path d="M186.086 189.236L186.914 187.594L184.653 186.438L183.818 188.095C184.572 188.474 185.329 188.855 186.086 189.236Z" fill="#404040"/>
<path d="M172.935 209.679L170.593 214.323L173.535 214.13L176.065 209.112C175.006 209.26 173.961 209.447 172.935 209.679Z" fill="#404040"/>
<path d="M184.851 208.845L192.984 192.716C192.227 192.333 191.472 191.952 190.717 191.571L182.071 208.718C182.993 208.727 183.921 208.774 184.851 208.845Z" fill="#404040"/>
<path d="M192.984 192.716L193.794 191.109L191.533 189.954L190.717 191.571C191.472 191.952 192.227 192.333 192.984 192.716Z" fill="#404040"/>
<path d="M182.071 208.718L179.542 213.735L182.483 213.541L184.851 208.845C183.921 208.774 182.993 208.727 182.071 208.718Z" fill="#404040"/>
<path d="M192.812 210.215L199.873 196.21C199.119 195.826 198.364 195.443 197.61 195.06L190.272 209.613C191.119 209.789 191.966 209.985 192.812 210.215Z" fill="#404040"/>
<path d="M199.873 196.21L200.673 194.625L198.412 193.47L197.61 195.06C198.364 195.443 199.119 195.826 199.873 196.21Z" fill="#404040"/>
<path d="M190.272 209.613L188.491 213.147L191.431 212.953L192.812 210.215C191.966 209.985 191.119 209.789 190.272 209.613Z" fill="#404040"/>
<path d="M200.1 212.92L206.758 199.715C206.004 199.33 205.25 198.946 204.496 198.562L197.771 211.9C198.551 212.217 199.329 212.552 200.1 212.92Z" fill="#404040"/>
<path d="M206.758 199.715L207.552 198.14L205.291 196.985L204.496 198.562C205.25 198.946 206.004 199.33 206.758 199.715Z" fill="#404040"/>
<path d="M197.771 211.9L196.141 215.133L198.224 216.641L200.1 212.92C199.329 212.552 198.552 212.217 197.771 211.9Z" fill="#404040"/>
<path d="M207.176 217.138L214.075 203.454C213.322 203.069 212.569 202.684 211.815 202.298L205.06 215.695C205.772 216.155 206.479 216.63 207.176 217.138Z" fill="#404040"/>
<path d="M214.075 203.454L214.869 201.879L212.609 200.724L211.815 202.298C212.569 202.684 213.322 203.069 214.075 203.454Z" fill="#404040"/>
<path d="M205.06 215.695L202.883 220.013L204.966 221.52L207.176 217.138C206.479 216.63 205.772 216.155 205.06 215.695Z" fill="#404040"/>
<path d="M211.277 220.525C211.922 221.122 212.558 221.74 213.182 222.384L220.95 206.98C220.198 206.594 219.446 206.208 218.691 205.82L211.277 220.525Z" fill="#404040"/>
<path d="M220.95 206.98L221.749 205.395L219.488 204.24L218.691 205.82C219.446 206.208 220.198 206.594 220.95 206.98Z" fill="#404040"/>
<path d="M211.277 220.525L209.222 224.601L210.263 225.354L211.327 226.065L213.182 222.384C212.558 221.74 211.922 221.122 211.277 220.525Z" fill="#404040"/>
<path d="M217.217 226.997C217.801 227.689 218.413 228.351 219.062 228.976L228.257 210.737C227.507 210.351 226.755 209.964 226 209.576L217.217 226.997Z" fill="#404040"/>
<path d="M228.257 210.737L229.066 209.134L226.805 207.979L226 209.575C226.755 209.964 227.507 210.351 228.257 210.737Z" fill="#404040"/>
<path d="M217.217 226.997L216.085 229.241L218.212 230.661L219.062 228.976C218.413 228.351 217.801 227.689 217.217 226.997Z" fill="#404040"/>
<path d="M223.211 232.264C223.925 232.718 224.666 233.132 225.422 233.518L235.124 214.276C234.375 213.89 233.624 213.502 232.868 213.113L223.211 232.264Z" fill="#404040"/>
<path d="M235.124 214.276L235.944 212.649L233.684 211.494L232.868 213.113C233.624 213.502 234.375 213.89 235.124 214.276Z" fill="#404040"/>
<path d="M223.211 232.264L222.557 233.563L224.684 234.983L225.422 233.518C224.666 233.132 223.925 232.718 223.211 232.264Z" fill="#404040"/>
<path d="M230.748 235.568C231.587 235.797 232.442 235.977 233.308 236.13L242.426 218.047C241.678 217.66 240.926 217.272 240.17 216.881L230.748 235.568Z" fill="#404040"/>
<path d="M242.426 218.047L243.262 216.389L241.001 215.233L240.17 216.881C240.926 217.272 241.678 217.66 242.426 218.047Z" fill="#404040"/>
<path d="M230.748 235.568L229.625 237.797L232.39 237.95L233.308 236.13C232.442 235.977 231.587 235.797 230.748 235.568Z" fill="#404040"/>
<path d="M241.654 236.737L249.288 221.595C248.542 221.209 247.79 220.82 247.033 220.429L238.86 236.641L241.654 236.737Z" fill="#404040"/>
<path d="M247.033 220.429C247.79 220.82 248.542 221.209 249.288 221.595L250.141 219.904L247.881 218.749L247.033 220.429Z" fill="#404040"/>
<path d="M238.86 236.641L238.042 238.263L240.807 238.416L241.654 236.737L238.86 236.641Z" fill="#404040"/>
<path d="M250.699 237.048L256.586 225.373C255.842 224.988 255.089 224.598 254.332 224.206L247.905 236.952L250.699 237.048Z" fill="#404040"/>
<path d="M256.586 225.373L257.458 223.643L255.198 222.488L254.332 224.206C255.089 224.598 255.842 224.988 256.586 225.373Z" fill="#404040"/>
<path d="M247.905 236.952L246.994 238.759L249.76 238.912L250.699 237.048L247.905 236.952Z" fill="#404040"/>
<path d="M259.204 237.341L263.447 228.925C262.709 228.543 261.959 228.155 261.193 227.758L256.41 237.245L259.204 237.341Z" fill="#404040"/>
<path d="M263.447 228.925L264.338 227.159L262.077 226.004L261.193 227.758C261.959 228.155 262.709 228.543 263.447 228.925Z" fill="#404040"/>
<path d="M256.41 237.245L255.411 239.225L258.177 239.379L259.204 237.341L256.41 237.245Z" fill="#404040"/>
<path d="M268.25 237.652L270.746 232.7C270.008 232.319 269.265 231.934 268.491 231.535L265.455 237.556L268.25 237.652Z" fill="#404040"/>
<path d="M270.746 232.7L271.655 230.898L269.395 229.743L268.491 231.535C269.265 231.934 270.008 232.319 270.746 232.7Z" fill="#404040"/>
<path d="M265.455 237.556L264.364 239.721L267.129 239.875L268.25 237.652L265.455 237.556Z" fill="#404040"/>
<path d="M276.754 237.945L277.612 236.245C276.881 235.868 276.129 235.48 275.356 235.081L273.96 237.849L276.754 237.945Z" fill="#404040"/>
<path d="M277.612 236.245L278.535 234.414L276.274 233.259L275.356 235.081C276.129 235.48 276.881 235.868 277.612 236.245Z" fill="#404040"/>
<path d="M273.96 237.849L272.781 240.188L275.546 240.341L276.754 237.945L273.96 237.849Z" fill="#404040"/>
<path d="M12.0401 123.409C11.0946 122.671 10.2065 121.889 9.35077 121.087C8.20655 125.184 7.22496 129.349 6.40363 133.572C7.39305 134.318 8.31502 135.119 9.19984 135.943C9.97761 131.703 10.9299 127.524 12.0401 123.409Z" fill="#404040"/>
<path d="M8.68472 138.943C8.6258 138.887 8.56536 138.831 8.50654 138.775C7.63657 137.95 6.77769 137.137 5.87538 136.383C5.05813 141.025 4.44734 145.738 4.03674 150.508C5.13588 151.111 6.12602 151.81 7.05481 152.559C7.40008 147.962 7.95234 143.422 8.68472 138.943Z" fill="#404040"/>
<path d="M6.60556 164.5C6.60556 161.555 6.69359 158.631 6.85355 155.725C5.89749 154.862 4.90164 154.059 3.81555 153.355C3.56379 157.039 3.42499 160.753 3.42499 164.5C3.42499 165.911 3.44391 167.317 3.47994 168.719C4.67413 169.319 5.75047 170.024 6.74235 170.8C6.65982 168.709 6.60556 166.611 6.60556 164.5Z" fill="#404040"/>
<path d="M58.3045 281.246C34.7546 259.806 17.7011 231.354 10.4622 199.227C9.8333 199.631 9.21673 200.029 8.64085 200.403L6.84576 197.643C13.88 231.272 31.3987 261.046 55.8306 283.39L55.432 282.419C55.7801 282.276 56.7752 281.868 58.3045 281.246Z" fill="#404040"/>
<path d="M203.335 317.555C190.906 320.71 177.896 322.393 164.5 322.393C126.301 322.393 91.2293 308.755 63.8912 286.097C62.7294 286.568 61.5945 287.03 60.4899 287.481C88.5537 311.24 124.85 325.575 164.5 325.575C178.339 325.575 191.769 323.828 204.585 320.545C204.085 319.515 203.664 318.517 203.335 317.555Z" fill="#404040"/>
<path d="M6.9165 174.264C5.87577 173.321 4.79263 172.445 3.59314 171.695C3.92885 179.33 4.79586 186.826 6.15847 194.148C6.9164 193.659 7.88365 193.038 9.05606 192.292C8.00363 186.39 7.29109 180.372 6.9165 174.264Z" fill="#404040"/>
<path d="M204.501 11.7445C221.09 16.0918 236.619 23.0791 250.617 32.2243C252.198 32.0316 253.556 31.6272 254.779 31.0868C240.436 21.362 224.439 13.8974 207.302 9.18518C207.226 9.25702 207.15 9.32673 207.074 9.39877C206.24 10.1907 205.393 10.9847 204.501 11.7445Z" fill="#404040"/>
<path d="M229.174 308.531L227.906 311.045L235.425 307.654L236.86 304.808C234.336 306.115 231.775 307.358 229.174 308.531Z" fill="#404040"/>
<path d="M218.293 312.952L216.707 316.097L224.227 312.705L225.532 310.116C223.148 311.119 220.734 312.064 218.293 312.952Z" fill="#404040"/>
<path d="M279.252 56.1629C281.785 56.4936 283.832 57.278 285.603 58.3068C280.454 52.4403 274.887 46.9525 268.946 41.8873C267.944 42.4413 267.033 43.0913 266.169 43.799C270.76 47.6723 275.13 51.7988 279.252 56.1629Z" fill="#404040"/>
<path d="M239.105 305.994L246.625 302.602L249.051 297.79C246.342 299.515 243.575 301.155 240.758 302.716L239.105 305.994Z" fill="#404040"/>
<path d="M264.179 42.1434C265.02 41.4287 265.923 40.7621 266.893 40.1538C263.753 37.5651 260.51 35.0978 257.177 32.7491C256.102 33.3457 254.919 33.8462 253.594 34.216C257.235 36.7133 260.766 39.358 264.179 42.1434Z" fill="#404040"/>
<path d="M208.764 319.679L210.489 318.901C209.893 319.079 209.3 319.263 208.701 319.433L208.764 319.679Z" fill="#404040"/>
<path d="M282.382 59.5798C290.026 68.1595 296.749 77.5748 302.397 87.6717C303.099 87.7573 303.84 87.8062 304.634 87.8062C305.165 87.8062 305.641 87.7553 306.131 87.7163C302.458 80.9561 298.313 74.4902 293.744 68.3585C292.277 67.2771 290.974 66.0582 289.695 64.8462C287.491 62.7558 285.354 60.7524 282.382 59.5798Z" fill="#404040"/>
<path d="M319.411 209.435L319.907 206.961C319.469 208.569 319.011 210.168 318.525 211.755L319.411 209.435Z" fill="#404040"/>
<path d="M0 164.5C0 255.205 73.7948 329 164.5 329C255.205 329 329 255.205 329 164.5C329 73.7948 255.205 0 164.5 0C73.7948 0 0 73.7948 0 164.5ZM254.779 31.0868C255.584 31.6327 256.382 32.1889 257.177 32.749C260.51 35.0978 263.753 37.565 266.893 40.1538C267.584 40.7236 268.264 41.3062 268.946 41.8873C274.887 46.9525 280.454 52.4402 285.603 58.3067C288.446 61.5463 291.165 64.8969 293.744 68.3585C298.313 74.4902 302.458 80.9561 306.131 87.7162C306.57 88.5254 306.995 89.3436 307.421 90.1611C309.688 94.5106 311.76 98.9772 313.63 103.548C313.958 104.348 314.284 105.148 314.599 105.954C316.096 109.791 317.447 113.701 318.653 117.674C318.927 118.58 319.203 119.485 319.462 120.397C320.636 124.528 321.64 128.731 322.485 132.99C322.667 133.908 322.847 134.827 323.014 135.751C323.862 140.458 324.496 145.239 324.925 150.078C325.006 150.986 325.084 151.895 325.15 152.808C325.427 156.67 325.575 160.567 325.575 164.5C325.575 167.593 325.479 170.663 325.307 173.712C326.37 174.59 327.029 175.161 327.198 175.308L325.97 176.716L324.223 185.431C323.27 192.776 321.815 199.962 319.907 206.961L319.411 209.435L318.525 211.755C317.434 215.314 316.22 218.817 314.895 222.266C315.295 222.34 315.562 222.379 315.639 222.389L314.773 228.931C314.018 228.831 313.203 228.685 312.35 228.493C309.808 234.358 306.929 240.043 303.734 245.522L303.346 248.806C303.056 248.772 302.653 248.662 302.011 248.415C293.793 261.853 283.659 273.988 271.991 284.451C271.992 284.451 272 284.455 272 284.455L263.43 292.07L258.28 296.647L256.684 298.065L250.304 300.942L249.665 301.231C237.583 308.772 224.432 314.754 210.489 318.901L208.764 319.679L208.701 319.433C208.418 319.514 208.131 319.588 207.847 319.667L204.891 321.189C204.778 320.971 204.69 320.761 204.585 320.545C191.769 323.828 178.339 325.575 164.5 325.575C124.85 325.575 88.5537 311.24 60.4899 287.481C59.6279 287.833 58.7641 288.186 57.9394 288.525L55.8306 283.39C31.3987 261.045 13.88 231.272 6.84581 197.643L5.04259 194.871C5.33017 194.684 5.71666 194.434 6.15851 194.148C4.79591 186.826 3.9289 179.33 3.59317 171.695C3.54963 170.704 3.50566 169.714 3.48002 168.718C3.44399 167.317 3.42506 165.91 3.42506 164.5C3.42506 160.753 3.56386 157.039 3.81562 153.355C3.88065 152.404 3.95524 151.455 4.03675 150.508C4.44737 145.738 5.05814 141.025 5.87539 136.382C6.04095 135.442 6.22178 134.507 6.40363 133.572C7.22495 129.349 8.20655 125.184 9.35077 121.087C9.6066 120.17 9.87485 119.26 10.1464 118.35C11.3534 114.308 12.7119 110.332 14.2208 106.429C14.5326 105.623 14.8525 104.82 15.177 104.02C17.0869 99.3093 19.2111 94.7088 21.5417 90.232C21.9702 89.4088 22.3982 88.5851 22.8405 87.7703C26.945 80.2088 31.6451 73.0191 36.8637 66.2495C39.1916 63.2299 41.6241 60.2959 44.156 57.4516C48.9791 52.0334 54.1587 46.941 59.6648 42.2162C60.3383 41.6382 61.0151 41.0639 61.6981 40.4969C64.8444 37.8857 68.09 35.3903 71.4315 33.0207C72.2382 32.4486 73.053 31.8873 73.8705 31.3299C88.0978 21.6287 103.958 14.1478 120.957 9.38585C121.913 9.11802 122.872 8.85761 123.835 8.60697C133.387 6.12223 143.285 4.49882 153.44 3.81009C155.74 3.65408 158.05 3.53554 160.376 3.47712C161.746 3.44262 163.121 3.42491 164.5 3.42491C165.537 3.42491 166.569 3.44465 167.6 3.46419C169.912 3.50784 172.211 3.6027 174.499 3.74281C184.759 4.37139 194.761 5.95197 204.414 8.41278C205.381 8.65935 206.342 8.92108 207.302 9.18506C224.439 13.8973 240.436 21.3619 254.779 31.0868Z" fill="#404040"/>
<path d="M253.311 294.98L250.386 300.781C253.4 298.877 256.345 296.875 259.22 294.781L262.558 288.161C259.561 290.542 256.478 292.817 253.311 294.98Z" fill="#404040"/>
<path d="M164.5 6.60559C167.852 6.60559 171.177 6.72314 174.478 6.93001C172.576 5.3535 170.443 4.06754 167.6 3.4643C166.569 3.44476 165.537 3.42502 164.5 3.42502C163.121 3.42502 161.746 3.44272 160.376 3.47722C157.526 4.09543 155.39 5.40144 153.48 6.99627C157.122 6.74389 160.795 6.60559 164.5 6.60559Z" fill="#404040"/>
<path d="M62.3631 44.1944C61.5177 43.4704 60.6285 42.803 59.6648 42.2163C54.1586 46.9411 48.979 52.0335 44.156 57.4517C45.7662 56.7436 47.6294 56.2659 49.8147 56.0902C53.7768 51.9008 57.9679 47.9314 62.3631 44.1944Z" fill="#404040"/>
<path d="M26.7097 87.4796C32.4353 77.2768 39.2581 67.7705 47.0224 59.1234C43.3189 60.1677 40.8892 62.4526 38.3677 64.8454C37.8727 65.315 37.3725 65.7849 36.8637 66.2496C31.645 73.0191 26.9449 80.2088 22.8405 87.7704C23.0447 87.7767 23.2244 87.8062 23.4355 87.8062C24.6424 87.8062 25.7058 87.6715 26.7097 87.4796Z" fill="#404040"/>
<path d="M25.194 90.2402C24.62 90.287 24.0592 90.3462 23.4354 90.3462C22.7638 90.3462 22.1559 90.2862 21.5417 90.232C19.2111 94.7089 17.0868 99.3093 15.1769 104.02C16.0614 104.572 17.0259 105.041 18.0867 105.412C20.1929 100.212 22.5667 95.1491 25.194 90.2402Z" fill="#404040"/>
<path d="M314.895 222.266C316.22 218.817 317.434 215.314 318.525 211.755L314.536 222.197C314.667 222.223 314.785 222.246 314.895 222.266Z" fill="#404040"/>
<path d="M303.835 90.2981C306.403 95.101 308.728 100.052 310.798 105.133C311.833 104.699 312.759 104.154 313.63 103.548C311.76 98.9772 309.688 94.5106 307.421 90.1611C306.55 90.2768 305.629 90.3462 304.634 90.3462C304.351 90.3462 304.108 90.3079 303.835 90.2981Z" fill="#404040"/>
<path d="M201.39 10.9679C202.461 10.1967 203.442 9.32102 204.414 8.41289C194.761 5.95207 184.759 4.3715 174.499 3.74292C176.01 4.80339 177.333 6.0223 178.623 7.24436C186.386 7.93583 193.988 9.18944 201.39 10.9679Z" fill="#404040"/>
<path d="M123.768 11.9427C122.79 11.1254 121.876 10.2585 120.97 9.39875C120.966 9.39448 120.961 9.39019 120.957 9.38593C103.958 14.1479 88.0978 21.6287 73.8705 31.3299C75.1579 31.8298 76.6234 32.1543 78.3026 32.2765C92.1163 23.2407 107.423 16.3107 123.768 11.9427Z" fill="#404040"/>
<path d="M12.7763 120.752C14.0484 116.347 15.5109 112.022 17.148 107.784C16.0897 107.407 15.1115 106.957 14.2208 106.429C12.7119 110.332 11.3533 114.308 10.1464 118.35C10.1821 118.384 10.2188 118.418 10.2544 118.451C11.0892 119.243 11.9139 120.023 12.7763 120.752Z" fill="#404040"/>
<path d="M149.321 7.33838C150.615 6.11235 151.933 4.88144 153.44 3.81018C143.285 4.49891 133.387 6.12232 123.835 8.60706C124.816 9.51621 125.82 10.378 126.913 11.1384C134.199 9.35217 141.681 8.07055 149.321 7.33838Z" fill="#404040"/>
<path d="M75.1648 34.3829C73.7789 34.0585 72.5491 33.5902 71.4314 33.0208C68.09 35.3904 64.8443 37.8858 61.6981 40.497C62.6351 41.1287 63.5032 41.8179 64.3266 42.5416C67.8162 39.6703 71.435 36.9517 75.1648 34.3829Z" fill="#404040"/>
<path d="M250.386 300.781L250.304 300.942L256.684 298.065L258.28 296.647L259.22 294.781C256.345 296.875 253.4 298.877 250.386 300.781Z" fill="#404040"/>
<path d="M322.393 164.5C322.393 166.76 322.334 169.006 322.239 171.243C323.471 172.211 324.506 173.05 325.307 173.712C325.479 170.663 325.575 167.593 325.575 164.5C325.575 160.567 325.427 156.67 325.15 152.808C324.042 153.426 323.043 154.157 322.096 154.957C322.285 158.115 322.393 161.295 322.393 164.5Z" fill="#404040"/>
<path d="M263.804 291.329L263.43 292.07L272 284.455C272 284.455 271.992 284.451 271.991 284.451C269.338 286.83 266.611 289.127 263.804 291.329Z" fill="#404040"/>
<path d="M316.797 122.816C317.915 126.893 318.872 131.035 319.663 135.235C320.547 134.443 321.475 133.682 322.485 132.99C321.64 128.731 320.636 124.528 319.462 120.397C318.599 121.215 317.727 122.038 316.797 122.816Z" fill="#404040"/>
<path d="M271.379 280.609C272.013 281.004 272.431 281.267 272.602 281.375L270.987 283.938C271.614 284.258 271.966 284.438 271.991 284.451C283.659 273.988 293.793 261.853 302.011 248.415C301.337 248.154 300.393 247.739 299.018 247.086C291.369 259.499 282.051 270.778 271.379 280.609Z" fill="#404040"/>
<path d="M316.03 120.107C316.633 119.568 317.228 119.016 317.824 118.451C318.098 118.192 318.376 117.933 318.653 117.674C317.447 113.701 316.096 109.791 314.599 105.954C313.718 106.533 312.788 107.07 311.744 107.503C313.344 111.624 314.775 115.829 316.03 120.107Z" fill="#404040"/>
<path d="M321.889 151.891C322.813 151.21 323.823 150.603 324.925 150.078C324.496 145.239 323.862 140.458 323.014 135.751C322.03 136.506 321.104 137.335 320.19 138.196C320.948 142.7 321.522 147.267 321.889 151.891Z" fill="#404040"/>
<path d="M320.397 204.517L319.907 206.961C321.815 199.962 323.27 192.776 324.223 185.431L322.273 195.158L320.397 204.517Z" fill="#404040"/>
<path d="M311.831 221.507C312.921 221.842 313.859 222.061 314.537 222.197L318.525 211.755C319.011 210.168 319.469 208.569 319.907 206.961L320.397 204.517L311.831 221.507Z" fill="#404040"/>
<path d="M320.862 186.434C319.94 193.036 318.61 199.507 316.895 205.824L322.273 195.158L324.223 185.431C324.531 183.057 324.781 180.664 324.984 178.259L320.862 186.434Z" fill="#404040"/>
<path d="M324.984 178.259C324.781 180.664 324.531 183.057 324.223 185.431L325.97 176.716L325.477 177.281L324.984 178.259Z" fill="#404040"/>
<path d="M302.366 241.383C303.442 241.893 304.181 242.22 304.527 242.333C304.351 242.276 304.212 242.263 304.121 242.251L303.734 245.522C306.929 240.043 309.808 234.358 312.35 228.493C311.35 228.268 310.296 227.975 309.215 227.613C307.151 232.328 304.864 236.922 302.366 241.383Z" fill="#404040"/>
<path d="M270.987 283.938L269.082 286.96C268.359 286.504 267.566 286.01 266.743 285.499L263.804 291.328C266.611 289.127 269.338 286.83 271.991 284.451C271.966 284.438 271.614 284.258 270.987 283.938Z" fill="#404040"/>
<path d="M207.847 319.667C208.131 319.588 208.417 319.514 208.701 319.433L208.655 319.251L207.847 319.667Z" fill="#404040"/>
<path d="M239.105 305.994L235.425 307.654L227.906 311.045L224.227 312.705L216.707 316.097L213.028 317.756L210.489 318.901C224.432 314.754 237.583 308.772 249.665 301.231L246.625 302.602L239.105 305.994Z" fill="#404040"/>
<path d="M214.839 314.164C213.142 314.736 211.428 315.272 209.706 315.788C209.984 316.546 210.331 317.337 210.759 318.168L208.655 319.251L208.701 319.433C209.3 319.263 209.893 319.079 210.489 318.901L213.028 317.756L214.839 314.164Z" fill="#404040"/>
<path d="M6.74239 170.799C5.75051 170.024 4.67417 169.319 3.47998 168.719C3.50562 169.714 3.54959 170.704 3.59314 171.695C4.79261 172.445 5.87577 173.321 6.9165 174.264C6.84587 173.113 6.78807 171.958 6.74239 170.799Z" fill="#404040"/>
<path d="M322.096 154.957C323.043 154.157 324.042 153.426 325.15 152.808C325.084 151.895 325.006 150.986 324.925 150.078C323.823 150.603 322.813 151.21 321.889 151.891C321.97 152.909 322.035 153.933 322.096 154.957Z" fill="#404040"/>
<path d="M7.05475 152.559C6.12596 151.81 5.13582 151.111 4.03668 150.508C3.95517 151.455 3.88058 152.404 3.81555 153.356C4.90166 154.059 5.89751 154.862 6.85356 155.725C6.91176 154.667 6.97567 153.611 7.05475 152.559Z" fill="#404040"/>
<path d="M319.663 135.235C319.848 136.219 320.023 137.206 320.19 138.196C321.104 137.335 322.03 136.506 323.014 135.751C322.847 134.827 322.667 133.908 322.485 132.99C321.475 133.682 320.547 134.443 319.663 135.235Z" fill="#404040"/>
<path d="M8.68471 138.943C8.84855 137.94 9.01716 136.939 9.19983 135.943C8.315 135.119 7.39304 134.318 6.40361 133.572C6.22176 134.507 6.04093 135.442 5.87537 136.383C6.77769 137.137 7.63657 137.95 8.50652 138.775C8.56535 138.831 8.62578 138.887 8.68471 138.943Z" fill="#404040"/>
<path d="M316.03 120.107C316.294 121.007 316.549 121.91 316.797 122.816C317.727 122.038 318.599 121.215 319.462 120.397C319.203 119.485 318.927 118.58 318.652 117.674C318.376 117.933 318.098 118.192 317.824 118.451C317.228 119.016 316.633 119.568 316.03 120.107Z" fill="#404040"/>
<path d="M12.7762 120.752C11.9138 120.023 11.0891 119.243 10.2544 118.451C10.2187 118.418 10.1821 118.384 10.1464 118.35C9.87478 119.26 9.60653 120.171 9.35071 121.087C10.2064 121.889 11.0945 122.671 12.0401 123.409C12.2796 122.521 12.5215 121.634 12.7762 120.752Z" fill="#404040"/>
<path d="M311.744 107.503C312.788 107.07 313.718 106.533 314.598 105.954C314.284 105.148 313.957 104.348 313.63 103.548C312.759 104.154 311.833 104.699 310.798 105.133C311.118 105.921 311.436 106.71 311.744 107.503Z" fill="#404040"/>
<path d="M18.0867 105.412C17.0259 105.04 16.0614 104.572 15.1769 104.02C14.8524 104.82 14.5326 105.623 14.2208 106.429C15.1115 106.957 16.0896 107.407 17.148 107.784C17.4546 106.99 17.7678 106.2 18.0867 105.412Z" fill="#404040"/>
<path d="M302.397 87.6717C302.884 88.5425 303.364 89.4172 303.835 90.2981C304.108 90.308 304.351 90.3462 304.634 90.3462C305.629 90.3462 306.55 90.2768 307.421 90.1611C306.995 89.3437 306.57 88.5254 306.131 87.7163C305.642 87.7554 305.165 87.8062 304.634 87.8062C303.84 87.8062 303.099 87.7573 302.397 87.6717Z" fill="#404040"/>
<path d="M25.194 90.2402C25.6898 89.314 26.1962 88.3946 26.7097 87.4796C25.7058 87.6715 24.6424 87.8062 23.4355 87.8062C23.2244 87.8062 23.0447 87.7767 22.8405 87.7704C22.3982 88.5852 21.9702 89.4089 21.5417 90.232C22.1559 90.2862 22.7638 90.3462 23.4355 90.3462C24.0592 90.3462 24.62 90.287 25.194 90.2402Z" fill="#404040"/>
<path d="M282.382 59.5798C285.354 60.7524 287.491 62.7558 289.695 64.8462C290.974 66.0582 292.277 67.2771 293.744 68.3585C291.165 64.8969 288.446 61.5463 285.603 58.3067C283.832 57.2779 281.785 56.4935 279.252 56.1629C280.313 57.2856 281.354 58.4264 282.382 59.5798Z" fill="#404040"/>
<path d="M47.0224 59.1234C47.9407 58.1007 48.8703 57.0886 49.8147 56.0902C47.6293 56.2659 45.7662 56.7436 44.156 57.4517C41.624 60.296 39.1915 63.23 36.8637 66.2496C37.3725 65.7849 37.8727 65.315 38.3677 64.8454C40.8892 62.4527 43.3189 60.1677 47.0224 59.1234Z" fill="#404040"/>
<path d="M64.3266 42.5417C63.5033 41.8179 62.6351 41.1287 61.6981 40.497C61.0151 41.064 60.3383 41.6383 59.6648 42.2163C60.6285 42.803 61.5177 43.4704 62.3631 44.1944C63.0148 43.6402 63.6659 43.0854 64.3266 42.5417Z" fill="#404040"/>
<path d="M266.169 43.799C267.033 43.0912 267.944 42.4413 268.946 41.8873C268.264 41.3062 267.584 40.7236 266.893 40.1538C265.923 40.7621 265.021 41.4287 264.179 42.1434C264.847 42.6893 265.509 43.2426 266.169 43.799Z" fill="#404040"/>
<path d="M253.594 34.216C254.919 33.8462 256.102 33.3457 257.177 32.749C256.382 32.1889 255.584 31.6327 254.779 31.0868C253.556 31.6272 252.198 32.0316 250.617 32.2243C251.617 32.8776 252.61 33.5408 253.594 34.216Z" fill="#404040"/>
<path d="M78.3027 32.2766C76.6234 32.1544 75.1579 31.8299 73.8705 31.33C73.0529 31.8874 72.2381 32.4488 71.4315 33.0208C72.5491 33.5902 73.7789 34.0585 75.1648 34.3829C76.202 33.6686 77.2479 32.9665 78.3027 32.2766Z" fill="#404040"/>
<path d="M153.48 6.99625C155.39 5.40144 157.526 4.09541 160.376 3.4772C158.05 3.53561 155.74 3.65417 153.44 3.81017C151.933 4.88143 150.615 6.11235 149.321 7.33838C150.703 7.20598 152.089 7.09262 153.48 6.99625Z" fill="#404040"/>
<path d="M123.768 11.9427C124.812 11.6637 125.86 11.3964 126.913 11.1384C125.82 10.378 124.816 9.5162 123.835 8.60706C122.872 8.8577 121.913 9.11811 120.957 9.38594C120.961 9.39021 120.966 9.39449 120.97 9.39876C121.876 10.2586 122.79 11.1254 123.768 11.9427Z" fill="#404040"/>
<path d="M201.39 10.968C202.431 11.218 203.469 11.474 204.501 11.7445C205.393 10.9847 206.24 10.1907 207.074 9.39878C207.15 9.32674 207.226 9.25703 207.302 9.18518C206.342 8.9212 205.381 8.65948 204.414 8.4129C203.442 9.32103 202.461 10.1967 201.39 10.968Z" fill="#404040"/>
<path d="M178.623 7.24435C177.333 6.02229 176.01 4.80338 174.499 3.74291C172.211 3.60278 169.912 3.50794 167.6 3.46429C170.443 4.06755 172.576 5.35352 174.478 6.93001C175.865 7.0169 177.247 7.12173 178.623 7.24435Z" fill="#404040"/>
<path d="M10.4622 199.227C9.94533 196.933 9.47152 194.623 9.05604 192.292C7.88363 193.038 6.91637 193.659 6.15845 194.148C6.37601 195.318 6.60304 196.483 6.84575 197.643L8.64083 200.403C9.21671 200.029 9.83329 199.631 10.4622 199.227Z" fill="#404040"/>
<path d="M5.04254 194.871L6.84576 197.643C6.60306 196.483 6.37603 195.318 6.15846 194.148C5.71662 194.434 5.33011 194.684 5.04254 194.871Z" fill="#404040"/>
<path d="M304.527 242.333C304.181 242.22 303.442 241.893 302.366 241.383C301.288 243.309 300.173 245.211 299.018 247.086C300.393 247.739 301.337 248.154 302.011 248.415C302.596 247.458 303.169 246.492 303.734 245.522L304.121 242.251C304.212 242.263 304.351 242.276 304.527 242.333Z" fill="#404040"/>
<path d="M303.346 248.806L303.734 245.522C303.169 246.492 302.596 247.458 302.011 248.415C302.653 248.662 303.056 248.772 303.346 248.806Z" fill="#404040"/>
<path d="M325.477 177.281L325.97 176.716L326.107 176.032L325.477 177.281Z" fill="#404040"/>
<path d="M324.037 174.499L322.131 173.484C322.025 175.37 321.883 177.246 321.71 179.114L324.037 174.499Z" fill="#404040"/>
<path d="M326.185 175.642L326.107 176.032L325.969 176.716L327.198 175.308C327.029 175.161 326.37 174.59 325.307 173.712C325.28 174.185 325.248 174.656 325.217 175.127L326.185 175.642Z" fill="#404040"/>
<path d="M322.239 171.243C322.208 171.992 322.174 172.739 322.131 173.484L324.037 174.499L325.217 175.127C325.248 174.656 325.28 174.185 325.307 173.712C324.506 173.05 323.471 172.211 322.239 171.243Z" fill="#404040"/>
<path d="M58.3045 281.246C56.7752 281.868 55.7801 282.276 55.4319 282.419L55.8305 283.39C57.3556 284.784 58.9117 286.145 60.4898 287.481C61.5945 287.03 62.7294 286.568 63.8911 286.097C61.9914 284.523 60.1279 282.906 58.3045 281.246Z" fill="#404040"/>
<path d="M268.88 282.861C269.758 283.31 270.467 283.672 270.987 283.938L272.603 281.375C272.431 281.267 272.013 281.004 271.379 280.609C270.554 281.369 269.721 282.119 268.88 282.861Z" fill="#404040"/>
<path d="M268.88 282.861C268.399 283.286 267.919 283.712 267.433 284.131L266.743 285.499C267.566 286.01 268.359 286.504 269.082 286.96L270.987 283.938C270.467 283.672 269.758 283.31 268.88 282.861Z" fill="#404040"/>
<path d="M57.9394 288.525C58.7641 288.186 59.6278 287.833 60.4899 287.481C58.9117 286.145 57.3557 284.785 55.8306 283.39L57.9394 288.525Z" fill="#404040"/>
<path d="M310.319 225.035L312.887 226.514L314.536 222.197C313.859 222.061 312.921 221.842 311.831 221.507L311.46 222.242C311.091 223.178 310.706 224.107 310.319 225.035Z" fill="#404040"/>
<path d="M312.887 226.514L310.319 225.035C309.959 225.899 309.589 226.757 309.215 227.613C310.296 227.975 311.35 228.268 312.35 228.493C313.24 226.439 314.089 224.364 314.895 222.266C314.785 222.246 314.667 222.223 314.536 222.197L312.887 226.514Z" fill="#404040"/>
<path d="M314.773 228.931L315.639 222.389C315.562 222.379 315.295 222.34 314.895 222.266C314.089 224.364 313.24 226.439 312.35 228.493C313.203 228.685 314.018 228.831 314.773 228.931Z" fill="#404040"/>
<path d="M207.918 316.371L207.906 316.324C206.392 316.758 204.867 317.166 203.335 317.555C203.664 318.517 204.085 319.515 204.585 320.545C205.677 320.265 206.763 319.969 207.847 319.667L208.655 319.251L207.918 316.371Z" fill="#404040"/>
<path d="M207.917 316.371L208.655 319.251L210.759 318.168C210.33 317.337 209.984 316.546 209.706 315.788C209.12 315.963 208.536 316.143 207.947 316.312L207.917 316.371Z" fill="#404040"/>
<path d="M204.585 320.545C204.689 320.761 204.778 320.971 204.891 321.19L207.847 319.667C206.763 319.969 205.677 320.265 204.585 320.545Z" fill="#404040"/>
<path d="M322.86 180.282C322.826 180.253 322.407 179.892 321.694 179.299C321.47 181.694 321.192 184.072 320.862 186.434L324.984 178.259C324.997 178.106 325.012 177.953 325.025 177.8L322.86 180.282Z" fill="#404040"/>
<path d="M324.984 178.259L325.477 177.281L325.025 177.8C325.012 177.953 324.997 178.106 324.984 178.259Z" fill="#404040"/>
<path d="M325.477 177.281L326.107 176.032L326.185 175.642L325.217 175.127C325.159 176.02 325.098 176.911 325.025 177.8L325.477 177.281Z" fill="#404040"/>
<path d="M321.694 179.299C322.407 179.892 322.826 180.253 322.86 180.282L325.025 177.8C325.097 176.911 325.159 176.02 325.217 175.127L324.037 174.499L321.71 179.114C321.705 179.175 321.699 179.237 321.694 179.299Z" fill="#404040"/>
<path d="M311.831 221.507L320.397 204.517L322.273 195.158L316.895 205.824C315.447 211.159 313.729 216.384 311.75 221.481C311.776 221.489 311.804 221.498 311.831 221.507Z" fill="#404040"/>
<path d="M311.46 222.242L311.831 221.507C311.804 221.498 311.776 221.489 311.75 221.481C311.652 221.734 311.559 221.989 311.46 222.242Z" fill="#404040"/>
<path d="M207.906 316.325L207.917 316.371L207.947 316.312C207.933 316.316 207.92 316.321 207.906 316.325Z" fill="#404040"/>
<path d="M214.839 314.164L213.027 317.756L216.707 316.097L218.293 312.952C217.147 313.368 215.996 313.774 214.839 314.164Z" fill="#404040"/>
<path d="M225.532 310.116L224.227 312.705L227.906 311.045L229.174 308.531C227.968 309.074 226.754 309.602 225.532 310.116Z" fill="#404040"/>
<path d="M236.86 304.808L235.425 307.654L239.105 305.994L240.758 302.716C239.469 303.43 238.171 304.129 236.86 304.808Z" fill="#404040"/>
<path d="M253.311 294.98C251.907 295.938 250.487 296.876 249.051 297.79L246.625 302.602L249.665 301.231C249.905 301.081 250.146 300.932 250.386 300.781L253.311 294.98Z" fill="#404040"/>
<path d="M249.665 301.231L250.304 300.942L250.386 300.781C250.146 300.932 249.905 301.081 249.665 301.231Z" fill="#404040"/>
<path d="M262.558 288.161L259.22 294.781C260.767 293.654 262.299 292.508 263.804 291.328L266.743 285.499C266.568 285.39 266.387 285.278 266.208 285.167C265.006 286.182 263.791 287.182 262.558 288.161Z" fill="#404040"/>
<path d="M259.22 294.781L258.28 296.647L263.43 292.07L263.804 291.329C262.299 292.508 260.767 293.654 259.22 294.781Z" fill="#404040"/>
<path d="M266.208 285.167C266.387 285.278 266.568 285.39 266.743 285.499L267.433 284.131C267.028 284.48 266.617 284.822 266.208 285.167Z" fill="#404040"/>
</g>
<defs>
<clipPath id="clip0_206_663">
<rect width="329" height="329" fill="white"/>
</clipPath>
</defs>
</svg>
